<svg width="244" height="339" viewBox="0 0 244 339" fill="none" xmlns="http://www.w3.org/2000/svg">
<path d="M8.58086 50.6061L8.57804 50.6126L8.57532 50.6193C3.84626 62.1041 1.5 75.9074 1.5 92V247.5C1.5 263.594 3.84664 277.559 8.57152 289.371L8.57802 289.388L8.58508 289.404C13.621 300.818 19.5216 309.775 26.3113 316.225L26.3298 316.243L26.3492 316.259C33.4822 322.373 42.7856 327.097 54.2178 330.459L54.2253 330.462C65.9362 333.808 76.6672 335.823 86.4138 336.496C96.122 337.5 107.819 338 121.5 338C134.847 338 146.212 337.5 155.588 336.496C165.334 335.822 176.065 333.807 187.775 330.462L187.787 330.458L187.8 330.454C199.551 326.761 209.012 321.875 216.142 315.767C223.625 309.642 229.872 300.834 234.915 289.404L234.919 289.394C239.984 277.575 242.5 263.601 242.5 247.5V92C242.5 75.9021 239.986 62.0921 234.917 50.6012C229.877 38.8418 223.63 29.8627 216.142 23.7332C209.007 17.6207 199.54 12.9014 187.787 9.54209C176.077 5.86243 165.342 3.67823 155.588 3.00369C146.211 2.00003 134.847 1.5 121.5 1.5C107.82 1.5 96.1222 2.00009 86.4141 3.00356C76.6674 3.67722 65.9363 5.69247 54.2253 9.03847L54.2253 9.03844L54.2178 9.04063C42.7761 12.4059 33.4659 17.3017 26.3301 23.7576C19.521 29.8861 13.6156 38.8583 8.58086 50.6061ZM159.318 282.269L159.305 282.281L159.293 282.293C157.183 284.402 153.148 286.108 146.942 287.267C140.777 288.418 132.637 289 122.5 289C112.196 289 103.888 288.418 97.5539 287.266C91.1817 286.108 86.964 284.398 84.6823 282.269C82.3811 280.121 80.5726 276.624 79.3461 271.636C78.1223 266.659 77.5 260.288 77.5 252.5V87C77.5 79.2116 78.1223 72.8407 79.3461 67.8638C80.5726 62.8761 82.3811 59.3789 84.6823 57.2311C86.964 55.1015 91.1817 53.3925 97.5539 52.2339C103.888 51.0823 112.196 50.5 122.5 50.5C132.637 50.5 140.777 51.0823 146.942 52.233C153.148 53.3916 157.183 55.0976 159.293 57.2071L159.305 57.2193L159.318 57.2311C161.619 59.3789 163.427 62.8761 164.654 67.8638C165.878 72.8407 166.5 79.2116 166.5 87V252.5C166.5 260.288 165.878 266.659 164.654 271.636C163.427 276.624 161.619 280.121 159.318 282.269Z" fill="#E55030" fill-opacity="0.2" stroke="#E55030" stroke-width="2"/>
</svg>
