<svg width="15" height="11" viewBox="0 0 15 11" fill="none" xmlns="http://www.w3.org/2000/svg">
<path d="M6.04334 10.2309C6.23596 10.0516 6.32841 9.83483 6.32071 9.58072C6.31236 9.32661 6.21188 9.10987 6.01926 8.93049L3.29856 6.39686H14.0369C14.3098 6.39686 14.5387 6.31076 14.7236 6.13856C14.9079 5.96697 15 5.75411 15 5.5C15 5.24589 14.9079 5.03273 14.7236 4.86054C14.5387 4.68894 14.3098 4.60314 14.0369 4.60314H3.29856L6.04334 2.04708C6.23596 1.86771 6.33226 1.65456 6.33226 1.40762C6.33226 1.16129 6.23596 0.94843 6.04334 0.769058C5.85072 0.589686 5.62183 0.5 5.35666 0.5C5.09214 0.5 4.86356 0.589686 4.67095 0.769058L0.264849 4.8722C0.16854 4.96188 0.100161 5.05904 0.0597115 5.16368C0.0199032 5.26831 0 5.38042 0 5.5C0 5.61958 0.0199032 5.73169 0.0597115 5.83632C0.100161 5.94096 0.16854 6.03812 0.264849 6.1278L4.69502 10.2534C4.87159 10.4178 5.09214 10.5 5.35666 10.5C5.62183 10.5 5.85072 10.4103 6.04334 10.2309Z" fill="#1F2123"/>
</svg>
