<svg width="20" height="16" viewBox="0 0 20 16" fill="none" xmlns="http://www.w3.org/2000/svg">
<path d="M13.2781 7.33601C13.4539 7.16021 13.6924 7.06144 13.941 7.06144C14.1896 7.06144 14.4281 7.16021 14.6039 7.33601L15.6324 8.36648C15.6989 7.34075 15.4835 6.31639 15.0098 5.40421C14.536 4.49203 13.8218 3.72678 12.9445 3.19124C12.0671 2.6557 11.06 2.37028 10.0322 2.36585C9.00431 2.36141 7.9948 2.63814 7.11287 3.16609C6.991 3.23913 6.8703 3.31765 6.75428 3.40046C6.55097 3.54421 6.29887 3.6013 6.05347 3.55918C5.80806 3.51705 5.58943 3.37917 5.44569 3.17585C5.30194 2.97254 5.24485 2.72045 5.28697 2.47504C5.3291 2.22963 5.46698 2.01101 5.6703 1.86726C5.82655 1.75788 5.98553 1.65359 6.14725 1.55476C7.30167 0.863729 8.62051 0.495442 9.96593 0.488385C11.3114 0.481327 12.634 0.835759 13.7956 1.51464C14.9572 2.19352 15.9151 3.17194 16.5693 4.34763C17.2235 5.52333 17.5499 6.85315 17.5144 8.19812L18.3781 7.33601C18.4653 7.24903 18.5688 7.18009 18.6826 7.13311C18.7965 7.08612 18.9185 7.06203 19.0417 7.06219C19.1648 7.06235 19.2867 7.08677 19.4005 7.13406C19.5142 7.18134 19.6175 7.25056 19.7045 7.33777C19.7915 7.42497 19.8604 7.52846 19.9074 7.64231C19.9544 7.75616 19.9785 7.87815 19.9783 8.00132C19.9781 8.12448 19.9537 8.24641 19.9064 8.36013C19.8591 8.47386 19.7899 8.57716 19.7027 8.66413L17.15 11.2149C16.9742 11.3907 16.7357 11.4895 16.4871 11.4895C16.2385 11.4895 16 11.3907 15.8242 11.2149L13.2754 8.66023C13.1004 8.48412 13.0024 8.2458 13.003 7.99755C13.0035 7.74931 13.1024 7.5114 13.2781 7.33601Z" fill="#3FA8E3"/>
<path d="M2.84399 4.78526C2.93105 4.69815 3.03442 4.62905 3.1482 4.58191C3.26197 4.53476 3.38392 4.5105 3.50708 4.5105C3.63023 4.5105 3.75218 4.53476 3.86596 4.58191C3.97973 4.62905 4.0831 4.69815 4.17016 4.78526L6.71899 7.33877C6.80597 7.42598 6.87491 7.52946 6.9219 7.64331C6.96888 7.75717 6.99298 7.87916 6.99281 8.00232C6.99265 8.12549 6.96823 8.24741 6.92094 8.36114C6.87366 8.47487 6.80444 8.57817 6.71723 8.66514C6.63003 8.75212 6.52655 8.82106 6.41269 8.86805C6.29884 8.91503 6.17685 8.93913 6.05369 8.93896C5.93052 8.9388 5.8086 8.91438 5.69487 8.86709C5.58114 8.81981 5.47784 8.75059 5.39087 8.66338L4.36274 7.63331C4.29637 8.659 4.51174 9.68331 4.98554 10.5954C5.45934 11.5076 6.17354 12.2727 7.05087 12.8082C7.92819 13.3437 8.93525 13.6291 9.96308 13.6335C10.9909 13.638 12.0004 13.3612 12.8823 12.8333C13.0053 12.7595 13.1276 12.6798 13.2448 12.5966C13.3452 12.5241 13.4589 12.4721 13.5795 12.4438C13.7001 12.4155 13.8251 12.4114 13.9473 12.4317C14.0695 12.452 14.1864 12.4963 14.2914 12.562C14.3964 12.6277 14.4873 12.7136 14.5588 12.8147C14.6304 12.9158 14.6813 13.03 14.7084 13.1509C14.7356 13.2717 14.7386 13.3967 14.7171 13.5187C14.6957 13.6407 14.6503 13.7573 14.5836 13.8616C14.5169 13.9659 14.4301 14.056 14.3284 14.1267C14.1721 14.2372 14.01 14.3431 13.8463 14.4415C12.6919 15.1326 11.373 15.5008 10.0276 15.5079C8.6821 15.5149 7.35944 15.1605 6.19782 14.4815C5.0362 13.8026 4.07825 12.8241 3.4241 11.6484C2.76994 10.4726 2.44359 9.14277 2.47915 7.79776L1.61548 8.66143C1.43771 8.82698 1.20262 8.91706 0.959748 8.91271C0.716873 8.90835 0.48517 8.80989 0.313455 8.63807C0.141739 8.46626 0.0434172 8.2345 0.0392037 7.99162C0.0349902 7.74874 0.125214 7.51371 0.290867 7.33604L2.84399 4.78526Z" fill="#3FA8E3"/>
</svg>
