<svg width="6" height="11" viewBox="0 0 6 11" fill="none" xmlns="http://www.w3.org/2000/svg">
<path d="M0.207852 10.7826C0.0692841 10.6377 0 10.4661 0 10.2678C0 10.07 0.0692841 9.89855 0.207852 9.75362L4.2679 5.50725L0.193995 1.24638C0.0646651 1.11111 0 0.942029 0 0.73913C0 0.536232 0.0692841 0.362319 0.207852 0.217391C0.34642 0.0724638 0.510485 0 0.700046 0C0.889238 0 1.05312 0.0724638 1.19169 0.217391L5.84758 5.10145C5.903 5.15942 5.94236 5.22222 5.96564 5.28986C5.98855 5.35749 6 5.42995 6 5.50725C6 5.58454 5.98855 5.657 5.96564 5.72464C5.94236 5.79227 5.903 5.85507 5.84758 5.91304L1.17783 10.7971C1.0485 10.9324 0.889238 11 0.700046 11C0.510485 11 0.34642 10.9275 0.207852 10.7826Z" fill="#373B3F"/>
</svg>
