<svg width="9" height="7" viewBox="0 0 9 7" fill="none" xmlns="http://www.w3.org/2000/svg">
<path d="M7.73755 7L1.26255 7C0.768797 7 0.468797 6.45625 0.737547 6.0375L3.97505 0.949999C4.03141 0.86093 4.10939 0.787564 4.20173 0.736725C4.29407 0.685887 4.39776 0.659228 4.50317 0.659228C4.60858 0.659228 4.71227 0.685887 4.80461 0.736725C4.89695 0.787563 4.97493 0.86093 5.0313 0.949999L8.26255 6.0375C8.32352 6.13177 8.35792 6.24075 8.36211 6.35294C8.36631 6.46513 8.34015 6.57637 8.28639 6.67493C8.23263 6.77349 8.15326 6.85572 8.05666 6.91293C7.96006 6.97014 7.84982 7.00022 7.73755 7Z" fill="white"/>
</svg>
