<svg width="60" height="60" viewBox="0 0 60 60" fill="none" xmlns="http://www.w3.org/2000/svg">
<path d="M54.6576 48.8664C55.2277 49.5861 55.5835 50.4519 55.6841 51.3645C55.7846 52.2772 55.6259 53.1997 55.2262 54.0262C54.8264 54.8528 54.2018 55.55 53.4239 56.0378C52.6461 56.5256 51.7465 56.7843 50.8283 56.7842H46.0712C44.9345 56.7842 43.8445 56.3327 43.0407 55.5289C42.237 54.7252 41.7855 53.6351 41.7855 52.4985V50.7928L40.7012 50.9556C39.6866 51.0922 38.6639 51.1609 37.6402 51.1614C37.593 51.1614 37.5469 51.1614 37.4998 51.1614V52.4985C37.4998 53.6351 37.0483 54.7252 36.2445 55.5289C35.4408 56.3327 34.3507 56.7842 33.2141 56.7842H16.0713C14.9347 56.7842 13.8446 56.3327 13.0409 55.5289C12.2372 54.7252 11.7857 53.6351 11.7857 52.4985V49.2842H7.49996V52.4985C7.49996 53.6351 7.04843 54.7252 6.24471 55.5289C5.44099 56.3327 4.3509 56.7842 3.21427 56.7842H1.07142C0.787264 56.7842 0.514743 56.8971 0.313812 57.098C0.112882 57.2989 0 57.5714 0 57.8556V58.927C0 59.2112 0.112882 59.4837 0.313812 59.6846C0.514743 59.8856 0.787264 59.9985 1.07142 59.9985H50.9526C52.3173 59.9952 53.6678 59.7207 54.9255 59.191C56.1833 58.6613 57.3232 57.8869 58.279 56.9128C59.363 55.6951 59.9736 54.1286 59.9997 52.4985C59.9614 50.9744 59.4415 49.5015 58.5147 48.291L54.6576 48.8664Z" fill="white"/>
<path d="M28.9565 44.0743L24.4008 41.7986C21.5717 40.3888 18.4545 39.6535 15.2937 39.6504H4.41016L5.14194 46.1936C5.1718 46.4539 5.29601 46.6942 5.49106 46.8691C5.68612 47.044 5.93851 47.1414 6.2005 47.1428H12.8562C13.1403 47.1428 13.4129 47.03 13.6138 46.829C13.8147 46.6281 13.9276 46.3556 13.9276 46.0714V43.3222C13.9274 43.1771 13.9567 43.0336 14.0137 42.9002C14.0707 42.7668 14.1541 42.6463 14.259 42.5462C14.3639 42.446 14.488 42.3682 14.6239 42.3174C14.7597 42.2666 14.9045 42.2439 15.0494 42.2507C18.1588 42.4017 21.2027 43.1986 23.9872 44.5907L28.5493 46.8707C32.2114 48.7026 36.341 49.3867 40.3982 48.8336L57.8559 46.2225V44.0893L42.0589 46.2418C41.0438 46.3824 40.0204 46.454 38.9957 46.4561C35.5096 46.4539 32.072 45.6383 28.9565 44.0743Z" fill="white"/>
<path d="M26.7857 3.24213H28.9286V1.07142C28.9429 0.802503 28.8502 0.538844 28.6707 0.338075C28.4912 0.137307 28.2396 0.0157592 27.9707 0C27.3455 0.000409968 26.7211 0.0448051 26.1022 0.132857L8.35727 3.32891C8.12272 3.35746 7.90652 3.4702 7.74886 3.64619C7.5912 3.82218 7.50281 4.04943 7.50013 4.28569V10.8407C7.50636 13.5019 6.89497 16.1282 5.71407 18.5131C5.52978 18.9417 5.34443 19.3703 5.16657 19.8106C3.72102 23.3822 3.05545 27.2215 3.21444 31.0713C3.21943 33.2423 3.49111 35.4046 4.02336 37.5094H15.2979C18.7905 37.5133 22.2348 38.326 25.3607 39.8837L29.9164 42.1594C33.5786 43.9968 37.7119 44.6804 41.7707 44.1201L57.857 41.9258V40.7205C57.9129 40.0192 57.825 39.3139 57.5988 38.6477C57.3725 37.9815 57.0126 37.3686 56.5412 36.8464C56.0697 36.3242 55.4966 35.9037 54.857 35.6108C54.2174 35.3178 53.5247 35.1585 52.8213 35.1427C50.603 34.9807 48.4167 34.5194 46.3221 33.7712L46.0146 34.6487C45.9413 34.8583 45.8047 35.04 45.6237 35.1686C45.4427 35.2972 45.2262 35.3664 45.0042 35.3666C44.8837 35.3667 44.7641 35.346 44.6506 35.3055C44.3828 35.2115 44.1633 35.0151 44.0401 34.7594C43.917 34.5037 43.9004 34.2096 43.9939 33.9416L44.3335 32.9709C43.0011 32.3657 41.7222 31.6489 40.5107 30.828L40.0232 31.5566C39.925 31.7029 39.7924 31.8228 39.6369 31.9056C39.4814 31.9883 39.3079 32.0315 39.1317 32.0313C38.9377 32.0312 38.7473 31.9785 38.5809 31.8787C38.4145 31.7789 38.2783 31.6357 38.1869 31.4646C38.0954 31.2934 38.0522 31.1006 38.0618 30.9068C38.0714 30.713 38.1335 30.5254 38.2414 30.3641L38.7857 29.552C37.7066 28.6875 36.6961 27.7407 35.7632 26.7202L34.8225 27.6599C34.6213 27.8608 34.3485 27.9735 34.0642 27.9733C33.7799 27.9731 33.5073 27.86 33.3064 27.6588C33.1055 27.4576 32.9928 27.1848 32.993 26.9005C32.9932 26.6162 33.1063 26.3436 33.3075 26.1427L34.3789 25.0777C33.5484 24.0085 32.8009 22.8773 32.1429 21.6942L30.5989 22.7227C30.4819 22.8008 30.3506 22.8551 30.2125 22.8824C30.0745 22.9098 29.9324 22.9097 29.7944 22.8821C29.6564 22.8546 29.5252 22.8001 29.4083 22.7218C29.2913 22.6436 29.191 22.543 29.1129 22.426C29.0348 22.3089 28.9805 22.1776 28.9532 22.0396C28.9258 21.9015 28.9259 21.7594 28.9535 21.6215C29.0091 21.3428 29.1732 21.0976 29.4097 20.9399L31.1721 19.7613C30.6609 18.6324 30.2333 17.4675 29.8929 16.276L28.2932 16.7742C28.1892 16.8068 28.0808 16.8231 27.9718 16.8224C27.7152 16.8233 27.4668 16.732 27.2717 16.5652C27.0767 16.3984 26.948 16.1672 26.9091 15.9135C26.8702 15.6598 26.9236 15.4006 27.0596 15.183C27.1957 14.9654 27.4053 14.8039 27.6504 14.7278L29.3818 14.1921C29.1577 13.0536 29.0145 11.9008 28.9532 10.7421H26.7857C26.5016 10.7421 26.2291 10.6292 26.0281 10.4283C25.8272 10.2273 25.7143 9.95482 25.7143 9.67066C25.7143 9.3865 25.8272 9.11398 26.0281 8.91305C26.2291 8.71212 26.5016 8.59924 26.7857 8.59924H28.9286V5.38497H26.7857C26.5016 5.38497 26.2291 5.27209 26.0281 5.07116C25.8272 4.87023 25.7143 4.59771 25.7143 4.31355C25.7143 4.02939 25.8272 3.75687 26.0281 3.55594C26.2291 3.35501 26.5016 3.24213 26.7857 3.24213Z" fill="white"/>
</svg>
