<svg width="15" height="15" viewBox="0 0 15 15" fill="none" xmlns="http://www.w3.org/2000/svg">
<path d="M1.63403 14.7196C1.26022 15.0935 0.654159 15.0935 0.280359 14.7196C-0.093453 14.3459 -0.093453 13.7397 0.280359 13.366L6.14637 7.49999L0.280359 1.63403C-0.093453 1.26022 -0.093453 0.654159 0.280359 0.280359C0.654159 -0.093453 1.26022 -0.093453 1.63403 0.280359L7.49999 6.14637L13.366 0.280359C13.7397 -0.093453 14.3459 -0.093453 14.7196 0.280359C15.0935 0.654159 15.0935 1.26022 14.7196 1.63403L8.85361 7.49999L14.7196 13.366C15.0935 13.7397 15.0935 14.3459 14.7196 14.7196C14.3459 15.0935 13.7397 15.0935 13.366 14.7196L7.49999 8.85361L1.63403 14.7196Z" fill="#8A96A2"/>
</svg>
