<svg width="60" height="60" viewBox="0 0 60 60" fill="none" xmlns="http://www.w3.org/2000/svg">
<mask id="mask0_149_564" style="mask-type:luminance" maskUnits="userSpaceOnUse" x="0" y="0" width="60" height="60">
<path d="M60 0H0V60H60V0Z" fill="white"/>
</mask>
<g mask="url(#mask0_149_564)">
<path d="M30 48.5715C40.242 48.5715 48.5742 40.2667 48.5742 30.0586H44.9414C44.9414 38.2975 38.2389 45 30 45C21.7611 45 15.0586 38.2975 15.0586 30.0586H11.4258C11.4258 40.2668 19.758 48.5715 30 48.5715Z" fill="white"/>
<path d="M60 30.0586H52.0898C52.0898 35.9564 49.7914 41.494 45.6176 45.6504C41.4492 49.8012 35.9027 52.0873 30 52.0873C24.0971 52.0873 18.5508 49.8012 14.3824 45.6506C10.2086 41.494 7.9102 35.9564 7.9102 30.0586H0C0 31.5064 0.549399 32.764 1.4511 33.7577C0.839999 34.9502 0.6523 36.3643 1.0263 37.7605C1.4007 39.1589 2.2732 40.2914 3.4011 41.0183C3.1196 42.328 3.3041 43.7426 4.0269 44.994C4.7507 46.2483 5.8863 47.1163 7.1645 47.5264C7.2318 48.8645 7.7756 50.1832 8.7977 51.205C9.8218 52.2289 11.1434 52.7733 12.4836 52.8388C12.8947 54.114 13.7618 55.2465 15.0132 55.9693C16.2671 56.6936 17.6848 56.8772 18.9967 56.5938C19.7237 57.7189 20.8543 58.5887 22.2505 58.9627C23.649 59.3377 25.0658 59.148 26.2591 58.5347C27.2494 59.43 28.5607 59.9767 30 59.9803C31.4387 59.9767 32.7503 59.4301 33.7404 58.5347C34.9342 59.148 36.351 59.3372 37.7494 58.9627C39.1452 58.5887 40.2759 57.7189 41.0033 56.5938C42.3152 56.8772 43.7325 56.6931 44.9863 55.9693C46.2382 55.247 47.1053 54.114 47.5164 52.8388C48.8566 52.7733 50.1782 52.2289 51.2023 51.205C52.224 50.1832 52.7682 48.8645 52.8355 47.5264C54.1132 47.1163 55.2489 46.2483 55.9731 44.994C56.6954 43.7425 56.8799 42.328 56.5984 41.0183C57.7268 40.2914 58.5988 39.1589 58.9738 37.7605C59.3476 36.3643 59.1595 34.9504 58.5489 33.7577C59.4506 32.764 60 31.5066 60 30.0586Z" fill="white"/>
<path d="M18.5742 30.0586C18.5742 36.3588 23.6998 41.4844 30 41.4844C36.3002 41.4844 41.4258 36.3588 41.4258 30.0586V0H37.9102V8.7891C35.0002 8.7891 32.2023 9.8222 30 11.6698C27.7977 9.8222 24.9998 8.7891 22.0898 8.7891V0H18.5742V30.0586Z" fill="white"/>
</g>
</svg>
