<svg width="50" height="60" viewBox="0 0 50 60" fill="none" xmlns="http://www.w3.org/2000/svg">
<path d="M38.6927 0H11.1957C11.0687 0 10.9423 0.00679688 10.8164 0.0179297L25.215 13.7986L39.0015 0.0120703C38.8991 0.00492187 38.7962 0 38.6927 0Z" fill="white"/>
<path d="M48.1761 7.49496L42.249 1.74023L27.7578 16.2313L37.2222 25.2895L48.3023 13.6038C49.9319 11.8853 49.8752 9.14484 48.1761 7.49496Z" fill="white"/>
<path d="M27.4396 32.905V30.2523H30.6477C31.8351 30.2523 32.9847 29.7581 33.8016 28.8964L34.801 27.8424L7.60367 1.8125L1.71336 7.95992C0.0758999 9.66863 0.11715 12.4085 1.80524 14.0671L17.0079 29.006C17.8257 29.8098 18.9076 30.2523 20.0544 30.2523H23.9218V32.9049C17.2483 33.7702 12.0767 39.4902 12.0767 46.3955C12.0767 53.8968 18.1795 59.9997 25.6809 59.9997C33.1823 59.9997 39.2851 53.897 39.2851 46.3955C39.2846 39.4903 34.113 33.7703 27.4396 32.905ZM26.7264 51.3863C26.5068 51.5059 26.2446 51.5652 25.9393 51.5652C25.6339 51.5652 25.3715 51.5057 25.1521 51.3863C24.9327 51.267 24.823 51.0978 24.823 50.8783V43.5944L24.408 43.852C24.2934 43.9284 24.1742 43.9666 24.0502 43.9666C23.85 43.9666 23.6829 43.876 23.5494 43.6947C23.4155 43.5136 23.349 43.3084 23.349 43.0793C23.349 42.7358 23.4873 42.4831 23.7639 42.3208L25.6529 41.1759C25.7578 41.1093 25.8961 41.0757 26.0677 41.0757C26.3157 41.0757 26.5423 41.1425 26.7475 41.276C26.9525 41.4097 27.0553 41.5766 27.0553 41.7768V50.8782H27.0555C27.0556 51.0979 26.9458 51.2671 26.7264 51.3863Z" fill="white"/>
</svg>
