<svg width="20" height="20" viewBox="0 0 20 20" fill="none" xmlns="http://www.w3.org/2000/svg">
<g clip-path="url(#clip0_851_11931)">
<path d="M1.72341 4.56825L9.11925 11.9649C9.33804 12.1839 9.63028 12.3138 9.9394 12.3297C10.2485 12.3456 10.5525 12.2462 10.7926 12.0508L10.8876 11.9649L18.2784 4.57325C18.3026 4.66492 18.3184 4.75825 18.3267 4.85409L18.3334 4.99992V14.9999C18.3335 15.4204 18.1747 15.8254 17.8888 16.1337C17.6029 16.442 17.211 16.6309 16.7917 16.6624L16.6667 16.6666H3.33341C2.91293 16.6667 2.50794 16.5079 2.19962 16.222C1.89131 15.9361 1.70245 15.5442 1.67091 15.1249L1.66675 14.9999V4.99992C1.66675 4.89992 1.67508 4.80325 1.69175 4.70825L1.72341 4.56825ZM16.6667 3.33325C16.7676 3.33325 16.8667 3.34159 16.9626 3.35909L17.1042 3.39159L10.0042 10.4916L2.90175 3.38992C2.99341 3.36492 3.08841 3.34825 3.18508 3.33992L3.33341 3.33325H16.6667Z" fill="white"/>
</g>
<defs>
<clipPath id="clip0_851_11931">
<rect width="20" height="20" fill="white"/>
</clipPath>
</defs>
</svg>
