<svg width="49" height="55" viewBox="0 0 49 55" fill="none" xmlns="http://www.w3.org/2000/svg">
<path d="M3.55273 50.166V53.3887C3.55273 54.2781 4.27461 55 5.16406 55H43.8359C44.7254 55 45.4473 54.2781 45.4473 53.3887V50.166H3.55273Z" fill="white"/>
<path d="M32.7111 19.0115C35.1883 16.3818 36.2389 12.8079 35.5922 9.20498C34.6576 3.99072 30.0084 0 24.4998 0C18.9278 0 14.3291 4.05732 13.4074 9.20498C12.7607 12.8079 13.8113 16.3818 16.2885 19.0115C17.9653 20.7926 18.5862 23.071 18.8118 24.6684C19.2855 28.0274 18.2672 30.5658 16.9899 32.4414H32.0118C30.7335 30.5658 29.7151 28.0253 30.1878 24.6684C30.4134 23.071 31.0343 20.7926 32.7111 19.0115Z" fill="white"/>
<path d="M47.0586 46.9434H1.94141C1.05152 46.9434 0.330078 46.2219 0.330078 45.332V43.7207C0.330078 39.2783 3.94429 35.6641 8.38672 35.6641H40.6133C45.0557 35.6641 48.6699 39.2783 48.6699 43.7207V45.332C48.6699 46.2219 47.9485 46.9434 47.0586 46.9434Z" fill="white"/>
</svg>
