<svg width="58" height="47" viewBox="0 0 58 47" fill="none" xmlns="http://www.w3.org/2000/svg">
<path d="M20.4285 21.9996C22.5479 21.9996 24.6198 21.3711 26.382 20.1936C28.1442 19.016 29.5177 17.3424 30.3286 15.3842C31.1396 13.4261 31.3517 11.2715 30.9381 9.19278C30.5245 7.11411 29.5037 5.20477 28.0049 3.70623C26.5061 2.2077 24.5966 1.18729 22.5179 0.774034C20.4391 0.360781 18.2845 0.573253 16.3265 1.38458C14.3685 2.19591 12.6951 3.56965 11.5179 5.33207C10.3407 7.09449 9.71252 9.16643 9.71289 11.2859C9.71587 14.1267 10.8458 16.8504 12.8548 18.859C14.8638 20.8676 17.5876 21.9971 20.4285 21.9996Z" fill="white"/>
<path d="M34.4469 30.8511C31.7315 28.066 28.2476 26.1535 24.4401 25.3579C20.6326 24.5623 16.6743 24.9198 13.071 26.3847C9.46762 27.8496 6.38273 30.3554 4.21036 33.582C2.03799 36.8086 0.876758 40.6095 0.875 44.4993C0.875 44.9965 1.07254 45.4734 1.42417 45.8251C1.77581 46.1767 2.25272 46.3743 2.75 46.3743H38.1125C38.6098 46.3743 39.0867 46.1767 39.4383 45.8251C39.79 45.4734 39.9875 44.9965 39.9875 44.4993C39.9948 42.511 39.6879 40.5342 39.0781 38.6418C38.1703 35.716 36.5833 33.0465 34.4469 30.8511Z" fill="white"/>
<path d="M43.0625 22.9375C47.4635 22.9375 51.0312 19.3698 51.0312 14.9688C51.0312 10.5677 47.4635 7 43.0625 7C38.6615 7 35.0938 10.5677 35.0938 14.9688C35.0938 19.3698 38.6615 22.9375 43.0625 22.9375Z" fill="white"/>
<path d="M43.062 25.1309C40.5487 25.1403 38.084 25.8248 35.9258 27.1127C36.3327 27.4765 36.7433 27.8346 37.1277 28.2284C39.6807 30.8525 41.5773 34.043 42.6627 37.5396C43.0344 38.6908 43.3085 39.8712 43.482 41.0684H55.2495C55.7468 41.0684 56.2237 40.8708 56.5754 40.5192C56.927 40.1676 57.1245 39.6906 57.1245 39.1934C57.1206 35.465 55.6377 31.8904 53.0013 29.2541C50.365 26.6177 46.7904 25.1348 43.062 25.1309Z" fill="white"/>
</svg>
