<svg width="100" height="100" viewBox="0 0 100 100" fill="none" xmlns="http://www.w3.org/2000/svg">
<circle cx="39.3555" cy="39.3555" r="31.3477" fill="#9747FF" fill-opacity="0.2"/>
<path d="M58.2938 20.5399C54.5603 16.8063 49.8035 14.2638 44.625 13.2337C39.4464 12.2036 34.0787 12.7323 29.2007 14.7528C24.3226 16.7734 20.1532 20.1951 17.2198 24.5852C14.2864 28.9754 12.7207 34.1368 12.7207 39.4168C12.7207 44.6968 14.2864 49.8582 17.2198 54.2484C20.1532 58.6385 24.3226 62.0602 29.2007 64.0808C34.0787 66.1014 39.4464 66.63 44.625 65.5999C49.8035 64.5699 54.5603 62.0273 58.2938 58.2938C60.7939 55.8267 62.779 52.8876 64.1339 49.6471C65.4888 46.4066 66.1865 42.9292 66.1865 39.4168C66.1865 35.9044 65.4888 32.4271 64.1339 29.1865C62.779 25.946 60.7939 23.0069 58.2938 20.5399V20.5399ZM56.361 56.3602C53.0099 59.7116 48.7402 61.994 44.0918 62.9187C39.4435 63.8435 34.6254 63.3691 30.2467 61.5555C25.868 59.7419 22.1254 56.6705 19.4923 52.7299C16.8592 48.7892 15.4538 44.1562 15.4538 39.4168C15.4538 34.6774 16.8592 30.0444 19.4923 26.1038C22.1254 22.1631 25.868 19.0918 30.2467 17.2782C34.6254 15.4646 39.4435 14.9901 44.0918 15.9149C48.7402 16.8396 53.0099 19.122 56.361 22.4734C58.6049 24.6879 60.3866 27.3259 61.6026 30.2345C62.8187 33.1431 63.4449 36.2643 63.4449 39.4168C63.4449 42.5694 62.8187 45.6905 61.6026 48.5991C60.3866 51.5077 58.6049 54.1458 56.361 56.3602Z" fill="#9747FF"/>
<path d="M92.2076 82.4803L67.5779 57.8491C72.1275 50.8942 73.9375 42.4997 72.6582 34.2879C71.3789 26.0762 67.1012 18.6301 60.6516 13.3887C54.202 8.14725 46.0385 5.48259 37.7386 5.90965C29.4388 6.3367 21.5919 9.82515 15.7143 15.7008C9.83675 21.5765 6.34578 29.4223 5.91606 37.722C5.48634 46.0217 8.14838 54.1861 13.3877 60.6374C18.6271 67.0886 26.0718 71.3688 34.2831 72.6507C42.4945 73.9326 50.8895 72.1253 57.8459 67.578L82.4787 92.2108C83.7704 93.4941 85.5181 94.213 87.3389 94.21C89.1596 94.207 90.905 93.4823 92.1924 92.1948C93.4798 90.9072 94.2043 89.1619 94.2072 87.3411C94.21 85.5203 93.491 83.7727 92.2076 82.4811V82.4803ZM17.5545 61.2796C13.2303 56.9554 10.2855 51.4461 9.0924 45.4483C7.89934 39.4504 8.51162 33.2335 10.8518 27.5837C13.1921 21.9339 17.1551 17.1049 22.2398 13.7074C27.3245 10.3099 33.3025 8.49649 39.4178 8.49649C45.5331 8.49649 51.5111 10.3099 56.5958 13.7074C61.6805 17.1049 65.6435 21.9339 67.9837 27.5837C70.324 33.2335 70.9363 39.4504 69.7432 45.4483C68.5501 51.4461 65.6053 56.9554 61.2811 61.2796C55.4779 67.0692 47.6152 70.3207 39.4178 70.3207C31.2204 70.3207 23.3577 67.0692 17.5545 61.2796V61.2796ZM63.2139 63.2124C64.1913 62.2311 65.1074 61.1906 65.9569 60.0968L71.9123 66.0522L66.0529 71.9116L60.0967 65.9553C61.1912 65.106 62.2322 64.1899 63.2139 63.2124V63.2124ZM90.274 90.2764C89.4962 91.0518 88.4427 91.4871 87.3444 91.4871C86.2461 91.4871 85.1925 91.0518 84.4147 90.2764L67.9834 73.8483L73.8428 67.9889L90.2709 84.4171C91.0467 85.1945 91.4826 86.2478 91.4832 87.3461C91.4838 88.4444 91.049 89.4981 90.274 90.2764V90.2764Z" fill="#9747FF"/>
<path d="M39.418 20.7188C39.0554 20.7188 38.7076 20.8628 38.4512 21.1192C38.1948 21.3756 38.0508 21.7233 38.0508 22.0859C38.0508 22.4485 38.1948 22.7963 38.4512 23.0527C38.7076 23.3091 39.0554 23.4531 39.418 23.4531C43.6499 23.4579 47.7071 25.1411 50.6996 28.1334C53.6921 31.1258 55.3755 35.1829 55.3805 39.4148C55.3805 39.7774 55.5245 40.1252 55.7809 40.3816C56.0373 40.638 56.3851 40.782 56.7477 40.782C57.1103 40.782 57.458 40.638 57.7144 40.3816C57.9708 40.1252 58.1148 39.7774 58.1148 39.4148C58.1093 34.4579 56.1376 29.7056 52.6324 26.2006C49.1273 22.6956 44.3749 20.7241 39.418 20.7188Z" fill="#9747FF"/>
</svg>
