<svg width="20" height="20" viewBox="0 0 20 20" fill="none" xmlns="http://www.w3.org/2000/svg">
<path d="M17.9222 15.4286C18.1123 15.6685 18.5282 16.8178 18.5618 17.122C18.5953 17.4263 18.5424 17.7338 18.4091 18.0093C18.2759 18.2848 18.0677 18.5172 17.8084 18.6798C17.5491 18.8424 17.2492 18.9287 16.9431 18.9286H15.3574C14.9785 18.9286 14.6151 18.7781 14.3472 18.5102C14.0793 18.2423 13.9288 17.8789 13.9288 17.5V15.9315L13.5674 15.9858C13.2291 16.0313 12.8883 16.0542 12.547 16.0543C12.5313 16.0543 12.5159 16.0543 12.5002 16.0543V17.5C12.5002 17.8789 12.3497 18.2423 12.0818 18.5102C11.8139 18.7781 11.4505 18.9286 11.0716 18.9286H5.35723C4.97834 18.9286 4.61497 18.7781 4.34706 18.5102C4.07915 18.2423 3.92863 17.8789 3.92863 17.5V15.4286H2.50004V17.5C2.50004 17.8789 2.34953 18.2423 2.08161 18.5102C1.8137 18.7781 1.45033 18.9286 1.07145 18.9286H0.357149C0.262427 18.9286 0.171585 18.9663 0.104606 19.0332C0.037628 19.1002 0 19.1911 0 19.2858V19.6429C0 19.7377 0.037628 19.8285 0.104606 19.8955C0.171585 19.9625 0.262427 20.0001 0.357149 20.0001H16.9846C17.4395 19.999 17.8896 19.9075 18.3089 19.7309C18.7282 19.5544 19.1081 19.2962 19.4267 18.9715C19.7881 18.5656 19.9916 18.0434 20.0003 17.5C19.9876 16.992 19.5169 15.6403 19.208 15.2368L17.9222 15.4286Z" fill="#3FA8E3"/>
<path d="M9.65298 14.6917L8.13438 13.9331C7.19134 13.4632 6.15226 13.2181 5.09862 13.217H1.4707L1.71464 15.3981C1.72459 15.4849 1.76599 15.565 1.83101 15.6233C1.89603 15.6816 1.98016 15.7141 2.0675 15.7146H4.28611C4.38083 15.7146 4.47167 15.677 4.53865 15.61C4.60563 15.543 4.64325 15.4522 4.64325 15.3574V14.441C4.6432 14.3926 4.65296 14.3448 4.67195 14.3003C4.69094 14.2559 4.71876 14.2157 4.75372 14.1823C4.78869 14.1489 4.83007 14.123 4.87535 14.1061C4.92064 14.0891 4.96889 14.0816 5.01719 14.0838C6.05369 14.1342 7.06834 14.3998 7.99652 14.8639L9.51726 15.6239C10.738 16.2345 12.1146 16.4626 13.467 16.2782L19.2863 15.4078V14.6967L14.0205 15.4142C13.6822 15.4611 13.341 15.485 12.9995 15.4856C11.8374 15.4849 10.6915 15.2131 9.65298 14.6917Z" fill="#3FA8E3"/>
<path d="M9.64272 1.08073V0.357149C9.6475 0.267507 9.6166 0.179618 9.55677 0.112694C9.49693 0.04577 9.41304 0.00525318 9.32343 0C9.11503 0.000136659 8.90689 0.0149354 8.70056 0.0442864L2.78547 1.10966C2.70728 1.11918 2.63521 1.15676 2.58266 1.21542C2.53011 1.27409 2.50064 1.34984 2.49975 1.42859V3.61363C2.50183 4.50072 2.29802 5.3762 1.90438 6.17117C1.84295 6.31403 1.78117 6.45689 1.72188 6.60368C1.24002 7.79424 1.01816 9.07403 1.07115 10.3573C1.07282 11.081 1.16338 11.8018 1.3408 12.5034H5.09908C6.2633 12.5047 7.4114 12.7756 8.45341 13.2949L9.97201 14.0534C11.1928 14.6659 12.5705 14.8938 13.9235 14.707L19.2857 13.9756V13.5738C19.3044 13.34 19.2751 13.1049 19.1996 12.8828C19.1242 12.6608 19.0043 12.4565 18.8471 12.2824C18.69 12.1083 18.4989 11.9682 18.2857 11.8705C18.0725 11.7729 17.8416 11.7198 17.6071 11.7145C16.8677 11.6605 16.1389 11.5067 15.4407 11.2573L14.7778 10.9905C14.3336 10.7888 13.9074 10.5498 13.5035 10.2762L12.9285 9.85087C12.5688 9.56269 12.232 9.2471 11.921 8.90693L11.4595 8.35942C11.1827 8.003 10.9335 7.62594 10.7142 7.23154L10.3906 6.58725C10.2202 6.21095 10.0776 5.82263 9.96415 5.42544L9.79379 4.73079C9.71909 4.3513 9.67135 3.967 9.65093 3.58077L9.64272 2.86647V1.79503V1.08073Z" fill="#3FA8E3"/>
</svg>
