<svg width="44" height="44" viewBox="0 0 44 44" fill="none" xmlns="http://www.w3.org/2000/svg">
<path d="M36.1518 32.8282C36.4791 33.2413 36.6832 33.7382 36.741 34.262C36.7987 34.7857 36.7076 35.3152 36.4782 35.7896C36.2488 36.2639 35.8903 36.6641 35.4438 36.944C34.9974 37.224 34.4811 37.3724 33.9542 37.3724H31.224C30.5717 37.3724 29.9461 37.1132 29.4848 36.652C29.0235 36.1907 28.7644 35.5651 28.7644 34.9128V33.9338L28.1421 34.0273C27.5598 34.1057 26.9729 34.1451 26.3853 34.1454C26.3583 34.1454 26.3318 34.1454 26.3048 34.1454V34.9128C26.3048 35.5651 26.0457 36.1907 25.5844 36.652C25.1231 37.1132 24.4975 37.3724 23.8452 37.3724H14.0067C13.3544 37.3724 12.7288 37.1132 12.2675 36.652C11.8063 36.1907 11.5471 35.5651 11.5471 34.9128V33.0681H9.08752V34.9128C9.08752 35.5651 8.82838 36.1907 8.36712 36.652C7.90585 37.1132 7.28024 37.3724 6.62791 37.3724H5.39811C5.23502 37.3724 5.07862 37.4372 4.9633 37.5525C4.84799 37.6678 4.7832 37.8242 4.7832 37.9873V38.6022C4.7832 38.7653 4.84799 38.9217 4.9633 39.037C5.07862 39.1523 5.23502 39.2171 5.39811 39.2171H34.0255C34.8087 39.2152 35.5838 39.0577 36.3056 38.7537C37.0275 38.4497 37.6817 38.0052 38.2302 37.4462C38.8523 36.7473 39.2028 35.8483 39.2177 34.9128C39.1958 34.0381 38.8974 33.1928 38.3655 32.498L36.1518 32.8282Z" fill="white"/>
<path d="M21.4019 30.078L18.7873 28.7719C17.1637 27.9628 15.3747 27.5409 13.5606 27.5391H7.31445L7.73443 31.2943C7.75157 31.4437 7.82285 31.5816 7.9348 31.682C8.04674 31.7824 8.19159 31.8383 8.34196 31.8391H12.1617C12.3248 31.8391 12.4812 31.7743 12.5965 31.659C12.7118 31.5437 12.7766 31.3873 12.7766 31.2242V29.6463C12.7765 29.5631 12.7933 29.4807 12.826 29.4041C12.8587 29.3276 12.9066 29.2585 12.9668 29.201C13.027 29.1435 13.0983 29.0988 13.1762 29.0697C13.2542 29.0405 13.3373 29.0275 13.4204 29.0314C15.205 29.1181 16.9519 29.5754 18.5499 30.3744L21.1682 31.6829C23.2699 32.7342 25.64 33.1269 27.9684 32.8094L37.9876 31.3109V30.0866L28.9215 31.3219C28.339 31.4027 27.7516 31.4437 27.1635 31.4449C25.1628 31.4437 23.1899 30.9756 21.4019 30.078Z" fill="white"/>
<path d="M20.1563 6.6439H21.3861V5.39811C21.3943 5.24377 21.3411 5.09245 21.2381 4.97723C21.1351 4.86201 20.9907 4.79225 20.8364 4.7832C20.4776 4.78344 20.1192 4.80892 19.764 4.85945L9.57998 6.6937C9.44537 6.71009 9.32129 6.77479 9.23081 6.8758C9.14033 6.9768 9.0896 7.10722 9.08806 7.24281V11.0048C9.09164 12.5321 8.74076 14.0394 8.06302 15.4081C7.95726 15.6541 7.85088 15.9 7.74881 16.1527C6.91919 18.2025 6.53721 20.4059 6.62845 22.6154C6.63132 23.8614 6.78724 25.1023 7.0927 26.3103H13.5633C15.5678 26.3126 17.5445 26.779 19.3385 27.6729L21.9531 28.979C24.0548 30.0335 26.427 30.4258 28.7563 30.1043L37.9885 28.845V28.1532C38.0205 27.7507 37.9701 27.3459 37.8403 26.9636C37.7104 26.5813 37.5039 26.2295 37.2333 25.9298C36.9627 25.6301 36.6338 25.3888 36.2667 25.2207C35.8996 25.0525 35.5021 24.9611 35.0984 24.952C33.8253 24.8591 32.5706 24.5943 31.3684 24.1649L31.192 24.6685C31.1499 24.7888 31.0715 24.8931 30.9676 24.9669C30.8638 25.0407 30.7395 25.0804 30.6121 25.0805C30.543 25.0806 30.4743 25.0687 30.4092 25.0455C30.2555 24.9915 30.1295 24.8788 30.0588 24.732C29.9881 24.5853 29.9786 24.4165 30.0323 24.2627L30.2272 23.7056C29.4625 23.3583 28.7285 22.9469 28.0332 22.4758L27.7534 22.8939C27.6971 22.9779 27.621 23.0467 27.5317 23.0942C27.4425 23.1417 27.3429 23.1665 27.2418 23.1663C27.1305 23.1663 27.0212 23.136 26.9257 23.0788C26.8302 23.0215 26.752 22.9393 26.6995 22.8411C26.6471 22.7429 26.6223 22.6322 26.6278 22.521C26.6333 22.4098 26.6689 22.3021 26.7308 22.2095L27.0432 21.7434C26.4239 21.2473 25.844 20.7039 25.3086 20.1183L24.7687 20.6575C24.6532 20.7728 24.4967 20.8375 24.3335 20.8374C24.1703 20.8373 24.0139 20.7724 23.8986 20.6569C23.7833 20.5414 23.7186 20.3849 23.7187 20.2217C23.7188 20.0586 23.7838 19.9021 23.8992 19.7868L24.5141 19.1756C24.0375 18.562 23.6085 17.9128 23.2308 17.2337L22.3447 17.8241C22.2776 17.8689 22.2022 17.9 22.123 17.9157C22.0438 17.9314 21.9622 17.9313 21.883 17.9155C21.8038 17.8997 21.7285 17.8684 21.6614 17.8235C21.5943 17.7786 21.5367 17.7209 21.4919 17.6537C21.4471 17.5865 21.4159 17.5112 21.4002 17.432C21.3845 17.3527 21.3846 17.2712 21.4004 17.192C21.4323 17.0321 21.5265 16.8914 21.6622 16.8009L22.6737 16.1245C22.3803 15.4766 22.1349 14.808 21.9395 14.1242L21.0215 14.4101C20.9618 14.4288 20.8996 14.4382 20.837 14.4378C20.6897 14.4383 20.5472 14.3859 20.4352 14.2902C20.3233 14.1945 20.2495 14.0617 20.2271 13.9162C20.2048 13.7706 20.2354 13.6218 20.3135 13.4969C20.3916 13.372 20.5119 13.2793 20.6525 13.2357L21.6462 12.9282C21.5176 12.2748 21.4354 11.6132 21.4003 10.9482H20.1563C19.9932 10.9482 19.8368 10.8834 19.7215 10.7681C19.6062 10.6528 19.5414 10.4964 19.5414 10.3333C19.5414 10.1702 19.6062 10.0138 19.7215 9.89851C19.8368 9.78319 19.9932 9.71841 20.1563 9.71841H21.3861V7.8737H20.1563C19.9932 7.8737 19.8368 7.80892 19.7215 7.6936C19.6062 7.57829 19.5414 7.42188 19.5414 7.2588C19.5414 7.09572 19.6062 6.93932 19.7215 6.824C19.8368 6.70868 19.9932 6.6439 20.1563 6.6439Z" fill="white"/>
</svg>
