<svg width="247" height="240" viewBox="0 0 247 240" fill="none" xmlns="http://www.w3.org/2000/svg">
<path d="M306.399 147.048H282.131L295.354 133.961L289.283 127.951L269.989 147.048H248.01L276.41 118.938L270.339 112.929L235.884 147.033H219.419L230.862 135.707H230.973V135.596L250.155 116.61H251.22V115.556L253.524 113.275L251.22 110.994V108.115H248.312L247.453 107.266L246.595 108.115H219.673L219.483 107.927L219.292 108.115H202.954L214.604 96.585H263.346V88.0906H223.186L238.728 72.7061H266.016V64.2118H247.31L264.474 47.2228L258.403 41.2138L241.239 58.2027V39.6879H232.657V66.6971L217.115 82.0815V42.3307H208.533V90.5759L196.883 102.106V86.077L196.963 85.9984L196.883 85.9198V59.0679L197.646 58.3128L196.883 57.5577V54.333H193.625L191.575 52.3038L189.525 54.333H188.301V55.5443L169.262 74.3893H168.992V74.6567L157.438 86.0928V69.7961L191.893 35.6924L185.822 29.6834L157.422 57.7937V36.0385L176.716 16.9417L170.645 10.9327L157.422 24.0204V0H148.84V24.0204L135.618 10.9327L129.547 16.9417L148.84 36.0385V57.7937L120.44 29.6834L114.369 35.6924L148.824 69.7961V86.0928L137.382 74.7668V74.6567H137.27L118.088 55.67V54.6161H117.023L114.719 52.3352L112.415 54.6161H109.506V57.4948L108.648 58.3442L109.506 59.1937V85.8411L109.316 86.0299L109.506 86.2187V102.39L97.857 90.8591V42.6138H89.275V82.3647L73.7321 66.9802V39.9711H65.1502V58.4859L47.9863 41.497L41.9153 47.5059L59.0792 64.4949H40.3737V72.9893H67.6612L83.2041 88.3737H43.0437V96.8681H91.7861L103.435 108.399H87.2408L87.1613 108.32L87.0819 108.399H59.9533L59.1905 107.644L58.4276 108.399H55.1697V111.623L53.1195 113.653L55.1697 115.682V116.893H56.3934L75.4326 135.738V136.005H75.7028L87.2567 147.442H70.792L36.337 113.338L30.2661 119.347L58.666 147.457H36.6867L17.3931 128.36L11.3222 134.37L24.5448 147.457H0.276855V155.952H24.5448L11.3222 169.055L17.3931 175.064L36.6867 155.967H58.666L30.2661 184.078L36.337 190.087L70.792 155.983H87.2567L75.8141 167.309H75.7028V167.419L56.5205 186.406H55.4557V187.46L53.1513 189.741L55.4557 192.022V194.885H58.3641L59.2222 195.734L60.0805 194.885H87.0024L87.1931 195.073L87.3838 194.885H103.721L92.0721 206.415H43.3297V214.909H83.4902L67.9473 230.294H40.6598V238.788H59.3653L42.2014 255.777L48.2723 261.786L65.4362 244.797V263.312H74.0182V236.303L89.5611 220.919V260.669H98.1431V212.424L109.792 200.894V216.923L109.713 217.002L109.792 217.08V243.932L109.029 244.687L109.792 245.442V248.667H113.05L115.1 250.696L117.151 248.667H118.374V247.456L137.414 228.611H137.684V228.343L149.238 216.907V233.204L114.783 267.308L120.853 273.317L149.253 245.206V266.961L129.96 286.058L136.031 292.067L149.253 278.98V303H157.835V278.98L171.058 292.067L177.129 286.058L157.835 266.961V245.206L186.235 273.317L192.306 267.308L157.851 233.204V216.907L169.294 228.233V228.343H169.405L188.587 247.33V248.384H189.652L191.957 250.665L194.261 248.384H197.169V245.505L198.028 244.656L197.169 243.806V217.159L197.36 216.97L197.169 216.781V200.61L208.819 212.141V260.386H217.401V220.635L232.943 236.02V263.029H241.526V244.514L258.689 261.503L264.76 255.494L247.596 238.505H266.302V230.011H239.014L223.472 214.626H263.632V206.132H214.89L203.24 194.601H219.435L219.514 194.68L219.594 194.601H246.722L247.485 195.357L248.248 194.601H251.506V191.377L253.556 189.347L251.506 187.318V186.107H250.282L231.243 167.262V166.994H230.973L219.419 155.558H235.884L270.339 189.662L276.41 183.653L248.026 155.543H270.005L289.298 174.639L295.369 168.63L282.147 155.543H306.415V147.048H306.399ZM169.707 161.394L163.636 167.403L169.262 172.972V189.143L157.82 177.817V169.936H149.238V177.817L137.684 189.253V173.224L143.31 167.655L137.239 161.646L131.613 167.215H115.275L126.718 155.889H134.68V147.394H126.718L115.164 135.958H131.358L136.984 141.527L143.055 135.518L137.429 129.949V113.778L148.872 125.104V132.985H157.454V125.104L169.008 113.668V129.698L163.382 135.266L169.453 141.275L175.079 135.707H191.416L179.974 147.033H172.012V155.527H179.974L191.528 166.963H175.333L169.707 161.394ZM192.116 147.048L203.558 135.722H218.72L207.277 147.048H192.116ZM212.14 127.228L222.852 116.626H238.013L227.302 127.228H212.14ZM199.998 127.228H183.661L194.372 116.626H210.71L199.998 127.228ZM177.59 121.219V105.19L188.301 94.5873V110.617L177.59 121.219ZM177.59 93.1872V78.1803L188.301 67.578V82.5849L177.59 93.1872ZM169.008 101.682L157.454 113.118V98.1109L169.008 86.6748V101.682ZM148.872 113.118L137.429 101.792V86.7849L148.872 98.1109V113.118ZM128.847 93.2973L118.136 82.695V67.6881L128.847 78.2904V93.2973ZM128.847 105.315V121.486L118.136 110.884V94.713L128.847 105.315ZM122.777 127.495H106.582L95.8704 116.893H112.065L122.777 127.495ZM94.456 127.495H79.2945L68.583 116.893H83.7445L94.456 127.495ZM103.038 135.99L114.592 147.426H99.4304L87.8765 135.99H103.038ZM114.592 155.92L103.149 167.246H87.9877L99.4304 155.92H114.592ZM94.5673 175.741L83.8557 186.343H68.6942L79.4058 175.741H94.5673ZM106.709 175.741H123.047L112.335 186.343H95.9976L106.709 175.741ZM129.118 181.75V197.779L118.406 208.381V192.352L129.118 181.75ZM129.118 209.781V224.788L118.406 235.39V220.384L129.118 209.781ZM137.7 201.287L149.253 189.851V204.858L137.7 216.294V201.287ZM157.835 189.851L169.278 201.177V216.184L157.835 204.858V189.851ZM177.86 209.671L188.572 220.274V235.28L177.86 224.678V209.671ZM177.86 197.653V181.482L188.572 192.085V208.255L177.86 197.653ZM183.931 175.473H200.125L210.837 186.076H194.643L183.931 175.473ZM212.251 175.473H227.413L238.124 186.076H222.963L212.251 175.473ZM203.669 166.979L192.116 155.543H207.277L218.831 166.979H203.669Z" fill="#CAECFF" fill-opacity="0.1"/>
</svg>
