<svg width="80" height="80" viewBox="0 0 80 80" fill="none" xmlns="http://www.w3.org/2000/svg">
<path d="M40.1005 9.79253L36.2217 13.6714L40.1005 17.5502L43.9794 13.6714L40.1005 9.79253Z" fill="white"/>
<path d="M40.1054 4.99996L38.0674 7.03809L40.1055 9.07614L42.1436 7.03801L40.1054 4.99996Z" fill="white"/>
<path d="M39.8936 62.4513L36.0146 66.3301L39.8934 70.209L43.7724 66.3302L39.8936 62.4513Z" fill="white"/>
<path d="M39.8936 70.9229L37.8555 72.9609L39.8935 74.9991L41.9317 72.9611L39.8936 70.9229Z" fill="white"/>
<path d="M13.6689 36.0157L9.79004 39.8945L13.6689 43.7734L17.5478 39.8945L13.6689 36.0157Z" fill="white"/>
<path d="M7.03816 37.8565L5 39.8945L7.03802 41.9327L9.07619 39.8947L7.03816 37.8565Z" fill="white"/>
<path d="M65.3241 34.6572L62.7666 32.0997L56.8646 38.0018H54.6239L57.9557 34.6696L56.4645 33.1743L56.498 31.0918L51.2875 31.0085L52.9283 29.3674L61.6379 29.5048L61.6964 25.8895L54.1114 25.7687V18.313H50.4959V26.6434L48.909 28.2303V23.5195H46.7974L45.3352 22.0117L41.5869 25.6354V23.3154L47.8347 17.2551L45.3352 14.6602L39.8912 19.9374L34.635 14.681L32.0775 17.2384L37.9795 23.1405V25.3813L34.6477 22.0492L33.1523 23.5445L31.0697 23.5111L30.9864 28.7218L29.3451 27.0807L29.4829 18.3713L25.8673 18.313L25.7463 25.8978H18.3119V29.5132H26.6422L28.225 31.1001H23.4934V33.2077L21.9854 34.6696L25.6131 38.4183H23.2931L17.2289 32.1705L14.6338 34.6696L19.9109 40.1177L14.6546 45.3741L17.2121 47.9315L23.1141 42.0295H25.3548L22.023 45.3616L23.5183 46.8528L23.4848 48.9354L28.6953 49.0187L27.0546 50.6598L18.3449 50.5223L18.287 54.1377L25.8714 54.2585V61.6933H29.487V53.3629L31.0738 51.776V56.5077H33.1813L34.6436 58.0154L38.3918 54.3917V56.7117L32.1441 62.7721L34.6436 65.367L40.0916 60.0897L45.3479 65.3461L47.9053 62.7887L42.0033 56.8867V54.6458L45.3352 57.978L46.8305 56.4827L48.9131 56.516L48.9965 51.3054L50.6377 52.9464L50.4999 61.66L54.1155 61.7141L54.2365 54.1335H61.6709V50.5181H53.3406L51.7537 48.9312H56.4853V46.8236L57.9934 45.3616L54.3697 41.613H56.6897L62.7499 47.8607L65.345 45.3616L60.0673 39.9136L65.3241 34.6572ZM52.8911 34.6238L49.513 38.0018H48.1926C47.9536 37.0362 47.5444 36.1208 46.9845 35.2986L47.7426 34.5405L52.8911 34.6238ZM40.0163 44.841C39.0648 44.841 38.1351 44.5588 37.3439 44.0302C36.5528 43.5016 35.9361 42.7503 35.572 41.8712C35.2079 40.9922 35.1123 40.0249 35.298 39.0917C35.4836 38.1585 35.942 37.3013 36.6148 36.6285C37.2876 35.9557 38.1445 35.4975 39.0777 35.3119C40.0109 35.1263 40.9783 35.2215 41.8574 35.5856C42.7365 35.9498 43.4876 36.5664 44.0163 37.3575C44.5449 38.1486 44.8272 39.0788 44.8272 40.0302C44.825 41.3055 44.3175 42.5278 43.4158 43.4295C42.5141 44.3312 41.2915 44.8388 40.0163 44.841ZM45.3143 27.0807V31.8498L44.3605 32.8037C43.515 32.2929 42.5859 31.9361 41.6159 31.7499V30.6544L45.3143 27.0807ZM34.6228 27.1057L38.0003 30.4837V31.8498C37.045 32.0856 36.1387 32.4874 35.3224 33.0369L34.5394 32.2538L34.6228 27.1057ZM27.0795 34.6821H31.8568L32.8234 35.6485C32.3087 36.4892 31.946 37.4142 31.7526 38.3808H30.6615L27.0795 34.6821ZM27.1044 45.3741L30.4825 41.9962H31.8278C32.0586 42.9603 32.4589 43.8757 33.0105 44.6994L32.2524 45.4575L27.1044 45.3741ZM34.6807 52.9173V48.1398L35.6137 47.2068C36.4635 47.731 37.4004 48.0991 38.3796 48.2939V49.3311L34.6807 52.9173ZM45.3728 52.8923L41.9906 49.5143V48.2189C42.9663 47.9849 43.8918 47.5772 44.723 47.0152L45.4521 47.7441L45.3728 52.8923ZM52.9161 45.3158H48.1387L47.2179 44.3953C47.7375 43.539 48.1003 42.5968 48.2887 41.613H49.33L52.9161 45.3158Z" fill="white"/>
<path d="M66.3252 36.2257L62.4463 40.1045L66.3251 43.9834L70.204 40.1046L66.3252 36.2257Z" fill="white"/>
<path d="M72.9609 38.0664L70.9229 40.1045L72.9609 42.1426L74.999 40.1045L72.9609 38.0664Z" fill="white"/>
<path d="M24.1974 18.564H18.7119V24.0495H24.1974V18.564Z" fill="white"/>
<path d="M18.2085 15.1851H15.3262V18.0674H18.2085V15.1851Z" fill="white"/>
<path d="M61.2839 55.9468H55.7983V61.4323H61.2839V55.9468Z" fill="white"/>
<path d="M64.6743 61.9404H61.792V64.8227H64.6743V61.9404Z" fill="white"/>
<path d="M24.0475 55.8003H18.562V61.2858H24.0475V55.8003Z" fill="white"/>
<path d="M18.0581 61.7915H15.1758V64.6738H18.0581V61.7915Z" fill="white"/>
<path d="M61.4338 18.7153H55.9482V24.2009H61.4338V18.7153Z" fill="white"/>
<path d="M64.8198 15.3291H61.9375V18.2114H64.8198V15.3291Z" fill="white"/>
</svg>
