<svg width="44" height="44" viewBox="0 0 44 44" fill="none" xmlns="http://www.w3.org/2000/svg">
<path d="M5.5685 9.57617V23.2255H3.83963C3.69648 23.2257 3.5547 23.1977 3.42242 23.143C3.29013 23.0883 3.16994 23.008 3.06872 22.9068C2.9675 22.8056 2.88725 22.6854 2.83255 22.5531C2.77786 22.4208 2.74981 22.2791 2.75 22.1359V10.6658C2.75084 10.3771 2.86591 10.1004 3.07007 9.89624C3.27424 9.69208 3.5509 9.57701 3.83963 9.57617H5.5685Z" fill="white"/>
<path d="M9.92698 5.82812H7.38461C6.78279 5.82812 6.29492 6.31599 6.29492 6.91781V25.8846C6.29492 26.4864 6.78279 26.9742 7.38461 26.9742H9.92698C10.5288 26.9742 11.0167 26.4864 11.0167 25.8846V6.91781C11.0167 6.31599 10.5288 5.82812 9.92698 5.82812Z" fill="white"/>
<path d="M41.2501 10.6658V22.1359C41.2503 22.2791 41.2223 22.4208 41.1676 22.5531C41.1129 22.6854 41.0326 22.8056 40.9314 22.9068C40.8302 23.008 40.71 23.0883 40.5777 23.143C40.4454 23.1977 40.3037 23.2257 40.1605 23.2255H38.4316V9.57617H40.1605C40.4492 9.57701 40.7259 9.69208 40.9301 9.89624C41.1342 10.1004 41.2493 10.3771 41.2501 10.6658V10.6658Z" fill="white"/>
<path d="M36.6164 5.82812H34.0741C33.4722 5.82812 32.9844 6.31599 32.9844 6.91781V25.8846C32.9844 26.4864 33.4722 26.9742 34.0741 26.9742H36.6164C37.2183 26.9742 37.7061 26.4864 37.7061 25.8846V6.91781C37.7061 6.31599 37.2183 5.82812 36.6164 5.82812Z" fill="white"/>
<path d="M24.8987 13.7891V13.9126C24.8879 13.8721 24.8879 13.8295 24.8987 13.7891V13.7891Z" fill="white"/>
<path d="M21.2522 13.9562C21.2339 13.9023 21.2314 13.8443 21.245 13.7891C21.2428 13.8449 21.2453 13.9008 21.2522 13.9562V13.9562Z" fill="white"/>
<path d="M18.0273 12.0325V14.0374C18.0277 14.2008 17.9959 14.3626 17.9336 14.5136C17.8714 14.6647 17.7799 14.802 17.6646 14.9176C17.5492 15.0333 17.4121 15.125 17.2612 15.1877C17.1103 15.2503 16.9485 15.2825 16.7852 15.2825C16.6218 15.2825 16.46 15.2503 16.3091 15.1877C16.1582 15.125 16.0212 15.0333 15.9058 14.9176C15.7904 14.802 15.6989 14.6647 15.6367 14.5136C15.5744 14.3626 15.5426 14.2008 15.543 14.0374V12.0325C15.5458 11.7049 15.6778 11.3916 15.9105 11.1609C16.1432 10.9302 16.4575 10.8008 16.7852 10.8008C17.1128 10.8008 17.4272 10.9302 17.6598 11.1609C17.8925 11.3916 18.0246 11.7049 18.0273 12.0325V12.0325Z" fill="white"/>
<path d="M21.245 13.834C21.2481 13.8516 21.2374 13.9451 21.2523 13.9575C21.2463 13.9166 21.2438 13.8753 21.245 13.834V13.834Z" fill="white"/>
<path d="M21.2436 13.7898C21.2743 13.9604 21.2694 14.1355 21.2291 14.3041C21.1889 14.4726 21.1142 14.6311 21.0097 14.7694C20.9053 14.9077 20.7733 15.0228 20.6222 15.1076C20.471 15.1925 20.3039 15.2451 20.1315 15.2622C19.959 15.2793 19.7849 15.2605 19.62 15.207C19.4552 15.1535 19.3032 15.0665 19.1736 14.9514C19.044 14.8363 18.9396 14.6956 18.8671 14.5382C18.7945 14.3808 18.7553 14.2101 18.752 14.0368L18.752 12.0319C18.7516 11.8681 18.7835 11.7058 18.846 11.5543C18.9084 11.4028 19.0001 11.2651 19.1158 11.1491C19.2316 11.0331 19.369 10.9411 19.5204 10.8783C19.6717 10.8155 19.8339 10.7832 19.9978 10.7832C20.1616 10.7832 20.3239 10.8155 20.4752 10.8783C20.6266 10.9411 20.764 11.0331 20.8797 11.1491C20.9955 11.2651 21.0872 11.4028 21.1496 11.5543C21.212 11.7058 21.244 11.8681 21.2436 12.0319V13.7898Z" fill="white"/>
<path d="M24.8981 11.5658V13.7886C24.8887 13.8366 24.8887 13.8859 24.8981 13.9339C24.862 14.303 24.6875 14.6448 24.4097 14.8905C24.1319 15.1362 23.7714 15.2677 23.4006 15.2585C23.0299 15.2493 22.6763 15.1001 22.411 14.8409C22.1458 14.5817 21.9885 14.2317 21.9707 13.8612V11.5658C21.9788 11.183 22.1366 10.8186 22.4102 10.5507C22.6838 10.2828 23.0515 10.1328 23.4344 10.1328C23.8173 10.1328 24.185 10.2828 24.4586 10.5507C24.7322 10.8186 24.89 11.183 24.8981 11.5658V11.5658Z" fill="white"/>
<path d="M28.5597 11.7853V13.9283C28.5293 14.2965 28.3615 14.6399 28.0897 14.8902C27.8179 15.1405 27.4619 15.2794 27.0924 15.2794C26.7229 15.2794 26.3669 15.1405 26.095 14.8902C25.8232 14.6399 25.6554 14.2965 25.625 13.9283V11.7853C25.6596 10.0012 28.53 10.0013 28.5597 11.7853Z" fill="white"/>
<path d="M21.5052 17.0504C21.5061 17.4859 21.6692 17.9055 21.9629 18.2272H11.7422V14.2246H14.8222C14.8658 14.6215 15.0286 14.996 15.2891 15.2986C15.5496 15.6013 15.8957 15.8179 16.2817 15.9201C16.6677 16.0223 17.0756 16.0052 17.4518 15.8712C17.8279 15.7371 18.1546 15.4922 18.3889 15.1689C18.5778 15.4284 18.8266 15.6386 19.1141 15.7813C19.4017 15.9241 19.7194 15.9953 20.0404 15.9889C20.3614 15.9825 20.676 15.8986 20.9576 15.7445C21.2392 15.5903 21.4794 15.3704 21.6578 15.1035C21.8089 15.3142 21.9987 15.4941 22.2171 15.6339C21.9976 15.7994 21.8191 16.0133 21.6957 16.2589C21.5722 16.5046 21.507 16.7754 21.5052 17.0504V17.0504Z" fill="white"/>
<path d="M29.4092 17.0955V18.2287H26.7069C26.6728 18.1862 26.6297 18.1518 26.5807 18.1279C26.5318 18.1041 26.4781 18.0913 26.4236 18.0907H23.2782C23.0039 18.0874 22.7419 17.9762 22.549 17.781C22.3562 17.5859 22.248 17.3226 22.248 17.0482C22.2481 16.7739 22.3562 16.5106 22.5491 16.3155C22.7419 16.1203 23.0039 16.0091 23.2783 16.0059H28.3196C28.6083 16.0067 28.8849 16.1218 29.0891 16.3259C29.2933 16.5301 29.4083 16.8068 29.4092 17.0955Z" fill="white"/>
<path d="M32.2578 14.2246V18.2272H30.1367V17.094C30.1355 16.6808 29.994 16.2804 29.7353 15.9583C29.4766 15.6363 29.116 15.4117 28.7129 15.3215C29.0076 15.0239 29.1986 14.6393 29.2577 14.2246H32.2578Z" fill="white"/>
<path d="M29.4103 18.9551C29.4801 19.4775 29.4392 20.0088 29.2902 20.5144C29.1413 21.02 28.8877 21.4886 28.5458 21.8898C28.111 22.2811 27.7614 22.7579 27.519 23.2903C27.2765 23.8227 27.1464 24.3994 27.1367 24.9843L27.1366 39.1231L17.1484 39.1304V24.5993C17.24 23.3128 16.1029 22.1463 15.3686 21.2142C14.9106 20.5559 14.7163 19.7498 14.8239 18.9551L29.4103 18.9551Z" fill="white"/>
</svg>
