<svg width="16" height="26" viewBox="0 0 16 26" fill="none" xmlns="http://www.w3.org/2000/svg">
<path d="M6.59244 24.582V3.41203L1.71244 8.29203C1.32244 8.68203 0.682444 8.68203 0.292444 8.29203C0.19974 8.19952 0.126193 8.08963 0.0760112 7.96865C0.0258297 7.84768 0 7.718 0 7.58703C0 7.45606 0.0258297 7.32638 0.0760112 7.20541C0.126193 7.08443 0.19974 6.97454 0.292444 6.88203L6.88244 0.29203C7.27244 -0.0979691 7.90244 -0.0979691 8.29244 0.29203L14.8824 6.88203C14.975 6.97461 15.0485 7.08452 15.0986 7.20549C15.1487 7.32645 15.1745 7.4561 15.1745 7.58703C15.1745 7.71796 15.1487 7.84761 15.0986 7.96857C15.0485 8.08954 14.975 8.19945 14.8824 8.29203C14.7899 8.38461 14.68 8.45805 14.559 8.50816C14.438 8.55826 14.3084 8.58405 14.1774 8.58405C14.0465 8.58405 13.9169 8.55826 13.7959 8.50816C13.6749 8.45805 13.565 8.38461 13.4724 8.29203L8.59244 3.41203V24.582C8.59244 25.132 8.14244 25.582 7.59244 25.582C7.04244 25.582 6.59244 25.132 6.59244 24.582Z" fill="white"/>
</svg>
