<svg width="100" height="100" viewBox="0 0 100 100" fill="none" xmlns="http://www.w3.org/2000/svg">
<rect x="1" y="1" width="98" height="98" rx="49" stroke="white" stroke-width="2"/>
<g clip-path="url(#clip0_380_15757)">
<path d="M50 68.5715C60.242 68.5715 68.5742 60.2667 68.5742 50.0586H64.9414C64.9414 58.2975 58.2389 65 50 65C41.7611 65 35.0586 58.2975 35.0586 50.0586H31.4258C31.4258 60.2668 39.758 68.5715 50 68.5715Z" fill="white"/>
<path d="M80 50.0586H72.0898C72.0898 55.9564 69.7914 61.494 65.6176 65.6504C61.4492 69.8012 55.9027 72.0873 50 72.0873C44.0971 72.0873 38.5508 69.8012 34.3824 65.6506C30.2086 61.494 27.9102 55.9564 27.9102 50.0586H20C20 51.5064 20.5494 52.764 21.4511 53.7577C20.84 54.9502 20.6523 56.3643 21.0263 57.7605C21.4007 59.1589 22.2732 60.2914 23.4011 61.0183C23.1196 62.328 23.3041 63.7426 24.0269 64.994C24.7507 66.2483 25.8863 67.1163 27.1645 67.5264C27.2318 68.8645 27.7756 70.1832 28.7977 71.205C29.8218 72.2289 31.1434 72.7733 32.4836 72.8388C32.8947 74.114 33.7618 75.2465 35.0132 75.9693C36.2671 76.6936 37.6848 76.8772 38.9967 76.5938C39.7237 77.7189 40.8543 78.5887 42.2505 78.9627C43.649 79.3377 45.0658 79.148 46.2591 78.5347C47.2494 79.43 48.5607 79.9767 50 79.9803C51.4387 79.9767 52.7503 79.4301 53.7404 78.5347C54.9342 79.148 56.351 79.3372 57.7494 78.9627C59.1452 78.5887 60.2759 77.7189 61.0033 76.5938C62.3152 76.8772 63.7325 76.6931 64.9863 75.9693C66.2382 75.247 67.1053 74.114 67.5164 72.8388C68.8566 72.7733 70.1782 72.2289 71.2023 71.205C72.224 70.1832 72.7682 68.8645 72.8355 67.5264C74.1132 67.1163 75.2489 66.2483 75.9731 64.994C76.6954 63.7425 76.8799 62.328 76.5984 61.0183C77.7268 60.2914 78.5988 59.1589 78.9738 57.7605C79.3476 56.3643 79.1595 54.9504 78.5489 53.7577C79.4506 52.764 80 51.5066 80 50.0586Z" fill="white"/>
<path d="M38.5742 50.0586C38.5742 56.3588 43.6998 61.4844 50 61.4844C56.3002 61.4844 61.4258 56.3588 61.4258 50.0586V20H57.9102V28.7891C55.0002 28.7891 52.2023 29.8222 50 31.6698C47.7977 29.8222 44.9998 28.7891 42.0898 28.7891V20H38.5742V50.0586Z" fill="white"/>
</g>
<defs>
<clipPath id="clip0_380_15757">
<rect width="60" height="60" fill="white" transform="translate(20 20)"/>
</clipPath>
</defs>
</svg>
