<svg width="30" height="40" viewBox="0 0 30 40" fill="none" xmlns="http://www.w3.org/2000/svg">
<path d="M5.24553 0H18.6292L29.9584 11.8199V34.7965C29.9584 37.6706 27.6289 40 24.7549 40H5.24553C2.37143 40 0.0419922 37.6705 0.0419922 34.7965V5.20354C0.0419922 2.32948 2.37143 0 5.24553 0V0Z" fill="#0263D1"/>
<path opacity="0.302" fill-rule="evenodd" clip-rule="evenodd" d="M18.6123 0V11.7228H29.9577L18.6123 0Z" fill="white"/>
<path d="M4.87305 28.5415V21.9197H7.2187C7.68782 21.9197 8.12463 21.9898 8.52905 22.1193C8.93347 22.2541 9.30014 22.4482 9.6291 22.7071C9.95802 22.9659 10.2169 23.311 10.4056 23.7424C10.5943 24.1737 10.6914 24.6698 10.6914 25.2306C10.6914 25.7914 10.5943 26.2875 10.4056 26.7189C10.2169 27.1502 9.95802 27.4954 9.6291 27.7542C9.30019 28.013 8.93347 28.2071 8.52905 28.3419C8.12463 28.4714 7.68787 28.5415 7.2187 28.5415H4.87305ZM6.52848 27.1018H7.01917C7.2834 27.1018 7.53145 27.0694 7.75251 27.0101C7.97898 26.9454 8.18386 26.8429 8.37799 26.7081C8.57211 26.5733 8.72307 26.3792 8.83093 26.1257C8.94419 25.8777 8.99806 25.5757 8.99806 25.2306C8.99806 24.8855 8.94414 24.5836 8.83093 24.3301C8.72307 24.082 8.57211 23.8879 8.37799 23.7531C8.18386 23.6129 7.97898 23.5159 7.75251 23.4512C7.53145 23.3918 7.2834 23.3595 7.01917 23.3595H6.52848V27.1018ZM14.7086 28.617C13.7111 28.617 12.886 28.2934 12.2336 27.6518C11.5811 27.0101 11.2575 26.2012 11.2575 25.2307C11.2575 24.26 11.5811 23.4512 12.2336 22.8096C12.886 22.1678 13.7111 21.8443 14.7086 21.8443C15.69 21.8443 16.5042 22.1679 17.1567 22.8096C17.8038 23.4513 18.1273 24.2601 18.1273 25.2307C18.1273 26.2012 17.8038 27.0101 17.1567 27.6518C16.5042 28.2934 15.69 28.617 14.7086 28.617ZM13.436 26.6272C13.7649 26.9939 14.1855 27.1773 14.6978 27.1773C15.2101 27.1773 15.6253 26.9939 15.9542 26.6272C16.2831 26.2552 16.4449 25.7914 16.4449 25.2306C16.4449 24.6698 16.2831 24.2061 15.9542 23.834C15.6253 23.4673 15.2101 23.284 14.6978 23.284C14.1855 23.284 13.7649 23.4673 13.436 23.834C13.1071 24.2061 12.9399 24.6698 12.9399 25.2306C12.9399 25.7914 13.1071 26.2552 13.436 26.6272ZM22.0637 28.617C21.0985 28.617 20.295 28.315 19.6587 27.7219C19.017 27.1233 18.6989 26.2929 18.6989 25.2306C18.6989 24.1737 19.0225 23.3433 19.6696 22.7448C20.322 22.1462 21.1147 21.8442 22.0637 21.8442C22.9211 21.8442 23.6221 22.0545 24.1775 22.4805C24.7275 22.9011 25.0457 23.4619 25.1266 24.1629L23.4549 24.5026C23.3848 24.136 23.2177 23.8394 22.9588 23.6183C22.7 23.3972 22.3981 23.284 22.0529 23.284C21.5784 23.284 21.1847 23.4512 20.8666 23.7908C20.5484 24.1359 20.3867 24.6104 20.3867 25.2306C20.3867 25.8507 20.5484 26.3252 20.8612 26.6649C21.1793 27.01 21.573 27.1772 22.0529 27.1772C22.398 27.1772 22.6946 27.0802 22.9372 26.886C23.1799 26.6919 23.3309 26.4331 23.3956 26.1096L25.1049 26.4978C24.9486 27.1664 24.6034 27.6841 24.0642 28.0561C23.5304 28.4283 22.8618 28.617 22.0637 28.617V28.617Z" fill="white"/>
</svg>
