<svg width="30" height="40" viewBox="0 0 30 40" fill="none" xmlns="http://www.w3.org/2000/svg">
<path fill-rule="evenodd" clip-rule="evenodd" d="M5.25035 0H18.6237L29.958 11.8141V34.7926C29.958 37.6712 27.6292 40 24.7606 40H5.25035C2.3718 40 0.0429688 37.6712 0.0429688 34.7926V5.20738C0.0429182 2.32883 2.37175 0 5.25035 0V0Z" fill="#E5252A"/>
<path opacity="0.302" fill-rule="evenodd" clip-rule="evenodd" d="M18.6133 0V11.7241H29.9576L18.6133 0Z" fill="white"/>
<path d="M5.83008 29.8452V22.5388H8.93853C9.70815 22.5388 10.3179 22.7487 10.7776 23.1785C11.2374 23.5983 11.4673 24.168 11.4673 24.8777C11.4673 25.5873 11.2374 26.157 10.7776 26.5768C10.3179 27.0066 9.70815 27.2165 8.93853 27.2165H7.69914V29.8452H5.83008ZM7.69914 25.6273H8.72864C9.00848 25.6273 9.22838 25.5673 9.37833 25.4274C9.52823 25.2975 9.60824 25.1176 9.60824 24.8777C9.60824 24.6378 9.52828 24.4579 9.37833 24.328C9.22843 24.188 9.00853 24.1281 8.72864 24.1281H7.69914V25.6273ZM12.2369 29.8452V22.5388H14.8256C15.3353 22.5388 15.8151 22.6088 16.2648 22.7587C16.7146 22.9086 17.1244 23.1186 17.4842 23.4084C17.8441 23.6882 18.1339 24.0681 18.3438 24.5478C18.5437 25.0276 18.6537 25.5773 18.6537 26.197C18.6537 26.8067 18.5437 27.3564 18.3438 27.8362C18.1339 28.3159 17.8441 28.6957 17.4842 28.9756C17.1244 29.2654 16.7146 29.4753 16.2648 29.6253C15.8151 29.7752 15.3353 29.8452 14.8256 29.8452H12.2369ZM14.066 28.256H14.6057C14.8955 28.256 15.1654 28.226 15.4153 28.156C15.6551 28.0861 15.885 27.9761 16.1049 27.8262C16.3148 27.6763 16.4847 27.4664 16.6047 27.1865C16.7246 26.9067 16.7846 26.5768 16.7846 26.197C16.7846 25.8072 16.7246 25.4774 16.6047 25.1975C16.4847 24.9177 16.3148 24.7078 16.1049 24.5578C15.885 24.4079 15.6552 24.298 15.4153 24.228C15.1654 24.1581 14.8955 24.128 14.6057 24.128H14.066V28.256ZM19.5932 29.8452V22.5388H24.7906V24.128H21.4623V25.2974H24.1209V26.8767H21.4623V29.8452H19.5932Z" fill="white"/>
</svg>
