<svg width="9" height="7" viewBox="0 0 9 7" fill="none" xmlns="http://www.w3.org/2000/svg">
<path d="M7.73828 1.2302e-06L1.26328 9.47171e-07C0.769529 9.25589e-07 0.469529 0.543751 0.738279 0.962501L3.97578 6.05C4.03215 6.13907 4.11013 6.21244 4.20246 6.26327C4.2948 6.31411 4.3985 6.34077 4.5039 6.34077C4.60931 6.34077 4.71301 6.31411 4.80534 6.26327C4.89768 6.21244 4.97566 6.13907 5.03203 6.05L8.26328 0.962501C8.32425 0.868231 8.35865 0.759253 8.36285 0.647062C8.36704 0.534871 8.34088 0.423627 8.28712 0.325066C8.23336 0.226505 8.15399 0.144281 8.05739 0.0870687C7.9608 0.0298561 7.85055 -0.000224169 7.73828 1.2302e-06V1.2302e-06Z" fill="black"/>
</svg>
