<svg width="355" height="280" viewBox="0 0 355 280" fill="none" xmlns="http://www.w3.org/2000/svg">
<path d="M392.98 147.726H361.826L378.8 130.751L371.007 122.957L346.239 147.726H318.023L354.481 111.266L346.688 103.472L302.457 147.706H281.32L296.01 133.015H296.153V132.873L320.778 108.247H322.145V106.879L325.103 103.921L322.145 100.963V97.2289H318.411L317.309 96.1272L316.208 97.2289H281.647L281.402 96.9841L281.157 97.2289H260.184L275.139 82.2736H337.711V71.2561H286.156L306.109 51.302H341.139V40.2846H317.126L339.16 18.2494L331.366 10.4555L309.332 32.4907V8.47645H298.315V43.5081L278.362 63.4622V11.9041H267.345V74.4797L252.391 89.435V68.6445L252.493 68.5425L252.391 68.4405V33.6128L253.37 32.6335L252.391 31.6541V27.4715H248.208L245.577 24.8396L242.945 27.4715H241.374V29.0426L216.932 53.4852H216.586V53.832L201.753 68.6649V47.5275L245.985 3.29417L238.191 -4.49974L201.733 31.9602V3.74297L226.501 -21.0261L218.707 -28.82L201.733 -11.8449V-43H190.716V-11.8449L173.742 -28.82L165.948 -21.0261L190.716 3.74297V31.9602L154.258 -4.49974L146.465 3.29417L190.696 47.5275V68.6649L176.006 53.9748V53.832H175.864L151.239 29.2057V27.8387H149.872L146.913 24.8803L143.955 27.8387H140.222V31.5725L139.12 32.6742L140.222 33.776V68.3385L139.977 68.5833L140.222 68.8282V89.8022L125.267 74.8469V12.2714H114.25V63.8294L94.2971 43.8754V8.84368H83.2802V32.8579L61.2463 10.8228L53.4528 18.6166L75.4867 40.6518H51.4738V51.6693H86.5036L106.457 71.6233H54.9013V82.6408H117.474L132.428 97.5961H111.639L111.537 97.4942L111.435 97.5961H76.6088L75.6295 96.6168L74.6502 97.5961H70.4678V101.779L67.836 104.411L70.4678 107.043V108.614H72.0388L96.4801 133.056V133.403H96.827L111.659 148.236H90.5228L46.2917 104.003L38.4982 111.797L74.9563 148.256H46.7405L21.9728 123.487L14.1793 131.281L31.1536 148.256H0V159.274H31.1536L14.1793 176.27L21.9728 184.063L46.7405 159.294H74.9563L38.4982 195.754L46.2917 203.548L90.5228 159.315H111.659L96.9698 174.005H96.827V174.148L72.202 198.774H70.8351V200.141L67.8768 203.099L70.8351 206.058V209.771H74.5686L75.6703 210.873L76.772 209.771H111.333L111.577 210.016L111.822 209.771H132.795L117.841 224.726H55.2685V235.744H106.824L86.8709 255.698H51.841V266.716H75.8539L53.82 288.751L61.6135 296.544L83.6474 274.509V298.523H94.6644V263.492L114.617 243.538V295.096H125.634V232.52L140.589 217.565V238.355L140.487 238.457L140.589 238.56V273.387L139.61 274.367L140.589 275.346V279.528H144.771L147.403 282.16L150.035 279.528H151.606V277.958L176.047 253.515H176.394V253.168L191.226 238.335V259.473L146.995 303.706L154.788 311.5L191.247 275.04V303.257L166.479 328.026L174.272 335.82L191.247 318.845V350H202.264V318.845L219.238 335.82L227.031 328.026L202.264 303.257V275.04L238.722 311.5L246.515 303.706L202.284 259.473V238.335L216.973 253.025V253.168H217.116L241.741 277.794V279.161H243.108L246.066 282.12L249.024 279.161H252.758V275.428L253.86 274.326L252.758 273.224V238.662L253.003 238.417L252.758 238.172V217.198L267.712 232.153V294.729H278.729V243.171L298.682 263.125V298.156H309.699V274.142L331.733 296.177L339.527 288.383L317.493 266.348H341.506V255.331H306.476L286.523 235.377H338.078V224.359H275.506L260.551 209.404H281.341L281.443 209.506L281.545 209.404H316.371L317.35 210.383L318.329 209.404H322.512V205.221L325.144 202.589L322.512 199.957V198.386H320.941L296.499 173.944V173.597H296.153L281.32 158.764H302.457L346.688 202.997L354.481 195.203L318.044 158.744H346.259L371.027 183.513L378.821 175.719L361.846 158.744H393V147.726H392.98ZM217.504 166.333L209.71 174.127L216.932 181.35V202.324L202.243 187.634V177.412H191.226V187.634L176.394 202.467V181.676L183.616 174.454L175.823 166.66L168.601 173.882H147.627L162.317 159.192H172.538V148.175H162.317L147.485 133.342H168.274L175.496 140.565L183.29 132.771L176.068 125.548V104.574L190.757 119.264V129.486H201.774V119.264L216.606 104.431V125.222L209.384 132.444L217.177 140.238L224.4 133.015H245.373L230.683 147.706H220.462V158.723H230.683L245.515 173.556H224.726L217.504 166.333ZM246.27 147.726L260.96 133.036H280.423L265.733 147.726H246.27ZM271.976 122.018L285.727 108.267H305.191L291.44 122.018H271.976ZM256.389 122.018H235.416L249.167 108.267H270.14L256.389 122.018ZM227.623 114.225V93.434L241.374 79.6825V100.473L227.623 114.225ZM227.623 77.8666V58.4022L241.374 44.6507V64.1151L227.623 77.8666ZM216.606 88.8841L201.774 103.717V84.2527L216.606 69.4198V88.8841ZM190.757 103.717L176.068 89.0269V69.5626L190.757 84.2527V103.717ZM165.051 78.0094L151.3 64.2579V44.7935L165.051 58.545V78.0094ZM165.051 93.5971V114.571L151.3 100.82V79.8456L165.051 93.5971ZM157.257 122.365H136.468L122.717 108.614H143.506L157.257 122.365ZM120.901 122.365H101.438L87.687 108.614H107.15L120.901 122.365ZM131.918 133.383L146.75 148.216H127.287L112.455 133.383H131.918ZM146.75 159.233L132.061 173.923H112.598L127.287 159.233H146.75ZM121.044 184.941L107.293 198.692H87.8298L101.581 184.941H121.044ZM136.631 184.941H157.604L143.853 198.692H122.88L136.631 184.941ZM165.397 192.735V213.525L151.647 227.277V206.486L165.397 192.735ZM165.397 229.093V248.557L151.647 262.308V242.844L165.397 229.093ZM176.414 218.075L191.247 203.242V222.707L176.414 237.539V218.075ZM202.264 203.242L216.953 217.932V237.397L202.264 222.707V203.242ZM227.97 228.95L241.721 242.701V262.166L227.97 248.414V228.95ZM227.97 213.362V192.388L241.721 206.139V227.113L227.97 213.362ZM235.763 184.594H256.553L270.304 198.345H249.514L235.763 184.594ZM272.119 184.594H291.583L305.333 198.345H285.87L272.119 184.594ZM261.102 173.576L246.27 158.744H265.733L280.566 173.576H261.102Z" fill="#CAECFF" fill-opacity="0.2"/>
</svg>
