<svg width="30" height="40" viewBox="0 0 30 40" fill="none" xmlns="http://www.w3.org/2000/svg">
<path fill-rule="evenodd" clip-rule="evenodd" d="M5.24101 0H18.6279L29.9563 11.8248V34.7883C29.9563 37.6642 27.6352 40 24.7593 40H5.24101C2.3797 40 0.0439453 37.6642 0.0439453 34.7883V5.19707C0.0438948 2.33575 2.3797 0 5.24101 0V0Z" fill="#00733B"/>
<path opacity="0.302" fill-rule="evenodd" clip-rule="evenodd" d="M18.6133 0V11.7226H29.9564L18.6133 0Z" fill="white"/>
<path d="M12.4815 29.124H10.5399L9.21145 26.8905L7.88296 29.124H5.92676L8.23335 25.2408L6.20417 21.8685H8.16032L9.2114 23.6204L10.2479 21.8685H12.2041L10.1894 25.2554L12.4815 29.124ZM13.1676 29.124V21.8685H15.0216V27.5474H18.1749V29.124H13.1676V29.124ZM21.2406 29.2116C20.5107 29.2116 19.8683 28.978 19.3136 28.5255C18.7734 28.0875 18.4669 27.5328 18.4231 26.8759L20.0143 26.4087C20.0582 26.7591 20.2041 27.0657 20.4523 27.2993C20.7151 27.5329 21.0071 27.6496 21.3282 27.6496C21.591 27.6496 21.81 27.5912 21.9852 27.4744C22.1457 27.3576 22.2333 27.1971 22.2333 27.0073C22.2333 26.8467 22.1603 26.7153 22.0289 26.5985C21.8975 26.4963 21.7223 26.4087 21.518 26.3358C21.3136 26.2628 21.0654 26.1898 20.8172 26.1314C20.5545 26.0584 20.2917 25.9708 20.0435 25.854C19.7808 25.7518 19.5472 25.6204 19.3428 25.4599C19.1238 25.3138 18.9632 25.0949 18.8318 24.8175C18.7004 24.5547 18.6274 24.2336 18.6274 23.8686C18.6274 23.2701 18.8756 22.7737 19.3865 22.3796C19.8975 21.9708 20.5107 21.781 21.2259 21.781C21.9413 21.781 22.569 21.9562 23.0946 22.292C23.6201 22.6423 23.9559 23.0949 24.0873 23.6496L22.423 24.3504C22.35 24.0438 22.204 23.7956 21.9997 23.6059C21.7953 23.4307 21.5325 23.3285 21.2259 23.3285C20.9923 23.3285 20.8172 23.3869 20.6712 23.4745C20.5398 23.5621 20.4814 23.6935 20.4814 23.8541C20.4814 24.0001 20.569 24.1314 20.7442 24.2336C20.9194 24.3212 21.153 24.3942 21.4157 24.438C21.6785 24.4818 21.9704 24.5548 22.277 24.657C22.5982 24.7738 22.8756 24.8906 23.1529 25.0511C23.4157 25.1971 23.6347 25.4453 23.8098 25.7665C23.9996 26.1023 24.0872 26.4964 24.0872 26.949C24.0872 27.6205 23.8245 28.1753 23.2989 28.584C22.7733 28.9927 22.0873 29.2116 21.2406 29.2116Z" fill="white"/>
</svg>
