<svg width="143" height="170" viewBox="0 0 143 170" fill="none" xmlns="http://www.w3.org/2000/svg">
<path d="M216.989 81.3118H199.787L209.159 71.9387L204.856 67.6352L191.18 81.3118H175.601L195.731 61.18L191.428 56.8765L167.005 81.3005H155.335L163.446 73.1892H163.524V73.1103L177.121 59.5127H177.876V58.7578L179.51 57.1243L177.876 55.4908V53.4292H175.815L175.206 52.8209L174.598 53.4292H155.515L155.38 53.294L155.245 53.4292H143.664L151.921 45.1714H186.472V39.088H158.005L169.022 28.0701H188.364V21.9866H175.105L187.271 9.81963L182.968 5.51612L170.802 17.6831V4.42338H164.719V23.7666L153.701 34.7845V6.31601H147.618V40.8679L139.361 49.1257V37.6459L139.417 37.5896L139.361 37.5333V18.3027L139.902 17.762L139.361 17.2212V14.9117H137.051L135.598 13.4585L134.145 14.9117H133.278V15.7792L119.782 29.2755H119.591V29.467L111.401 37.6572V25.986L135.824 1.56192L131.52 -2.74159L111.39 17.3902V1.80973L125.065 -11.8668L120.762 -16.1703L111.39 -6.79728V-24H105.306V-6.79728L95.9338 -16.1703L91.6305 -11.8668L105.306 1.80973V17.3902L85.1756 -2.74159L80.8723 1.56192L105.295 25.986V37.6572L97.1842 29.5459V29.467H97.1053L83.5083 15.8693V15.1145H82.7536L81.1201 13.481L79.4867 15.1145H77.4252V17.1762L76.8168 17.7845L77.4252 18.3929V37.477L77.29 37.6122L77.4252 37.7474V49.3285L69.1678 41.0707V6.51879H63.0847V34.9872L52.0674 23.9693V4.62615H45.9842V17.8859L33.8179 5.71896L29.5146 10.0224L41.6809 22.1894H28.4219V28.2729H47.7641L58.7814 39.2907H30.3144V45.3742H64.8646L73.1219 53.632H61.6427L61.5864 53.5757L61.5301 53.632H42.3005L41.7598 53.0912L41.2191 53.632H38.9097V55.9414L37.4565 57.3947L38.9097 58.848V59.7155H39.7771L53.2728 73.2118V73.4033H53.4643L61.654 81.5935H49.9833L25.5606 57.1694L21.2573 61.4729L41.3881 81.6047H25.8084L12.1326 67.9281L7.82927 72.2317L17.2019 81.6047H0V87.6882H17.2019L7.82927 97.0725L12.1326 101.376L25.8084 87.6994H41.3881L21.2573 107.831L25.5606 112.135L49.9833 87.7107H61.654L53.5431 95.822H53.4643V95.9009L39.8673 109.499H39.1125V110.253L37.4791 111.887L39.1125 113.52V115.571H41.174L41.7823 116.179L42.3907 115.571H61.4738L61.6089 115.706L61.7441 115.571H73.3247L65.0673 123.829H30.5172V129.912H58.9842L47.9669 140.93H28.6247V147.013H41.8837L29.7174 159.18L34.0207 163.484L46.187 151.317V164.577H52.2701V145.233L63.2874 134.216V162.684H69.3706V128.132L77.6279 119.874V131.354L77.5716 131.41L77.6279 131.467V150.697L77.0872 151.238L77.6279 151.779V154.088H79.9373L81.3905 155.542L82.8437 154.088H83.7111V153.221L97.2067 139.724H97.3982V139.533L105.588 131.343V143.014L81.1652 167.438L85.4685 171.742L105.599 151.61V167.19L91.9234 180.867L96.2267 185.17L105.599 175.797V193H111.682V175.797L121.055 185.17L125.358 180.867L111.682 167.19V151.61L131.813 171.742L136.116 167.438L111.694 143.014V131.343L119.805 139.454V139.533H119.883L133.48 153.131V153.885H134.235L135.869 155.519L137.502 153.885H139.564V151.824L140.172 151.215L139.564 150.607V131.523L139.699 131.388L139.564 131.253V119.672L147.821 127.929V162.481H153.904V134.013L164.921 145.031V164.374H171.005V151.114L183.171 163.281L187.474 158.978L175.308 146.811H188.567V140.727H169.225L158.207 129.709H186.674V123.626H152.124L143.867 115.368H155.346L155.402 115.424L155.459 115.368H174.688L175.229 115.909L175.77 115.368H178.079V113.059L179.532 111.605L178.079 110.152V109.285H177.212L163.716 95.7882V95.5967H163.524L155.335 87.4065H167.005L191.428 111.831L195.731 107.527L175.612 87.3953H191.192L204.867 101.072L209.171 96.7683L199.798 87.3953H217V81.3118H216.989ZM120.097 91.5861L115.794 95.8896L119.782 99.8777V111.459L111.671 103.348V97.7034H105.588V103.348L97.3982 111.538V100.058L101.386 96.0698L97.0828 91.7663L93.095 95.7544H81.5144L89.6253 87.6431H95.2691V81.5596H89.6253L81.4356 73.3695H92.9147L96.9026 77.3575L101.206 73.054L97.218 69.066V57.4848L105.329 65.5961V71.2403H111.412V65.5961L119.602 57.4059V68.8857L115.614 72.8738L119.917 77.1773L123.905 73.1892H135.486L127.375 81.3005H121.731V87.384H127.375L135.564 95.5742H124.085L120.097 91.5861ZM135.981 81.3118L144.092 73.2005H154.839L146.728 81.3118H135.981ZM150.175 67.117L157.768 59.5239H168.515L160.922 67.117H150.175ZM141.569 67.117H129.988L137.581 59.5239H149.161L141.569 67.117ZM125.685 62.8135V51.3338L133.278 43.7407V55.2205L125.685 62.8135ZM125.685 42.738V31.9905L133.278 24.3974V35.145L125.685 42.738ZM119.602 48.8215L111.412 57.0117V46.2642L119.602 38.074V48.8215ZM105.329 57.0117L97.218 48.9004V38.1529L105.329 46.2642V57.0117ZM91.1348 42.8169L83.5421 35.2238V24.4763L91.1348 32.0694V42.8169ZM91.1348 51.4239V63.005L83.5421 55.412V43.8308L91.1348 51.4239ZM86.8316 67.3085H75.3524L67.7597 59.7155H79.2388L86.8316 67.3085ZM66.7571 67.3085H56.0102L48.4175 59.7155H59.1644L66.7571 67.3085ZM72.8403 73.392L81.03 81.5822H70.2831L62.0933 73.392H72.8403ZM81.03 87.6657L72.9191 95.777H62.1722L70.2831 87.6657H81.03ZM66.836 101.86L59.2433 109.454H48.4964L56.089 101.86H66.836ZM75.4425 101.86H87.023L79.4304 109.454H67.8498L75.4425 101.86ZM91.3263 106.164V117.644L83.7337 125.237V113.757L91.3263 106.164ZM91.3263 126.239V136.987L83.7337 144.58V133.833L91.3263 126.239ZM97.4095 120.156L105.599 111.966V122.713L97.4095 130.903V120.156ZM111.682 111.966L119.793 120.077V130.825L111.682 122.713V111.966ZM125.876 126.161L133.469 133.754V144.501L125.876 136.908V126.161ZM125.876 117.554V105.972L133.469 113.566V125.147L125.876 117.554ZM130.18 101.669H141.659L149.252 109.262H137.772L130.18 101.669ZM150.254 101.669H161.001L168.594 109.262H157.847L150.254 101.669ZM144.171 95.5854L135.981 87.3953H146.728L154.918 95.5854H144.171Z" fill="#CAECFF" fill-opacity="0.2"/>
</svg>
