<svg width="12" height="12" viewBox="0 0 12 12" fill="none" xmlns="http://www.w3.org/2000/svg">
<path d="M0.133301 11.3973C0.133301 11.6569 0.343034 11.8666 0.602634 11.8666H11.3973C11.6569 11.8666 11.8666 11.6569 11.8666 11.3973V5.2373H0.133301V11.3973ZM11.3973 1.1893H8.9333V0.250634C8.9333 0.186101 8.8805 0.133301 8.81597 0.133301H7.99463C7.9301 0.133301 7.8773 0.186101 7.8773 0.250634V1.1893H4.12263V0.250634C4.12263 0.186101 4.06983 0.133301 4.0053 0.133301H3.18397C3.11943 0.133301 3.06663 0.186101 3.06663 0.250634V1.1893H0.602634C0.343034 1.1893 0.133301 1.39903 0.133301 1.65863V4.23997H11.8666V1.65863C11.8666 1.39903 11.6569 1.1893 11.3973 1.1893Z" fill="white"/>
</svg>
