<svg width="60" height="54" viewBox="0 0 60 54" fill="none" xmlns="http://www.w3.org/2000/svg">
<path d="M21.2109 14.6953C19.2729 14.6953 17.6953 16.2729 17.6953 18.2109C17.6953 20.149 19.2729 21.7266 21.2109 21.7266C23.149 21.7266 24.7266 20.149 24.7266 18.2109C24.7266 16.2729 23.149 14.6953 21.2109 14.6953Z" fill="white"/>
<path d="M58.2422 0.632812H52.9688V15.5944L58.5306 14.6713C59.3786 14.5305 60 13.7975 60 12.9375V2.39062C60 1.41902 59.2138 0.632812 58.2422 0.632812Z" fill="white"/>
<path d="M33.5156 0.632812C32.544 0.632812 31.7578 1.41902 31.7578 2.39062V4.14844H28.2422V2.39062C28.2422 1.41902 27.456 0.632812 26.4844 0.632812H21.9457C12.8648 0.632812 5.07656 7.04953 3.82852 15.5587C3.48703 17.8873 3.57563 20.1895 4.07766 22.3699C1.6343 23.4894 0 25.941 0 28.7578C0 31.251 1.33137 33.577 3.51562 34.8435V44.5781C3.51562 49.4242 7.45863 53.3672 12.3047 53.3672H30C32.9079 53.3672 35.2734 51.0016 35.2734 48.0938C35.2734 45.1859 32.9079 42.8203 30 42.8203H12.3047C9.3968 42.8203 7.03125 40.4548 7.03125 37.5469V35.7891C8.98687 35.7891 10.9294 34.9477 12.2895 33.4203C14.9882 34.9757 18.0637 35.7908 21.1937 35.7908C22.2906 35.7908 23.4013 35.6912 24.5136 35.487C29.8867 34.505 36.1883 30.2633 38.1555 23.002C39.0122 19.8417 41.8604 17.4384 45.2284 16.8789L49.453 16.1779V0.632812H33.5156ZM12.3047 46.3359H30C30.9698 46.3359 31.7578 47.1239 31.7578 48.0938C31.7578 49.0636 30.9698 49.8516 30 49.8516H12.3047C9.3968 49.8516 7.03125 47.486 7.03125 44.5781V44.5332C8.50477 45.6486 10.3186 46.3359 12.3047 46.3359ZM7.03125 32.2734C5.88352 32.2734 4.86258 31.7204 4.22051 30.867C4.2177 30.8631 4.21465 30.8593 4.21184 30.8555C3.77473 30.2695 3.51562 29.5434 3.51562 28.7578C3.51562 27.477 4.19051 26.3495 5.22937 25.7344C6.10207 27.6176 7.32469 29.3516 8.88516 30.8589C9.0566 31.0243 9.23168 31.1848 9.40875 31.3423C8.76926 31.9291 7.92316 32.2734 7.03125 32.2734ZM21.2109 25.2422C17.3331 25.2422 14.1797 22.0888 14.1797 18.2109C14.1797 14.3331 17.3331 11.1797 21.2109 11.1797C25.0888 11.1797 28.2422 14.3331 28.2422 18.2109C28.2422 22.0888 25.0888 25.2422 21.2109 25.2422Z" fill="white"/>
</svg>
