<svg width="44" height="44" viewBox="0 0 44 44" fill="none" xmlns="http://www.w3.org/2000/svg">
<path d="M29.2215 4.7832H14.7508C14.3825 4.7832 14.084 5.08175 14.084 5.45003V6.73005H29.8883V5.45003C29.8883 5.08175 29.5897 4.7832 29.2215 4.7832Z" fill="white"/>
<path d="M35.8908 6.95117H31.759V8.82146H34.9557V10.159C34.9557 11.9488 33.2854 13.4457 31.5949 13.7873C31.4699 14.461 31.2755 15.1106 31.0195 15.7286C34.0187 15.6441 36.826 13.1782 36.826 10.159V7.88631C36.826 7.36983 36.4073 6.95117 35.8908 6.95117Z" fill="white"/>
<path d="M31.2119 32.6973H28.3848V31.1213C28.3848 30.3221 27.7346 29.6719 26.9354 29.6719H17.0637C16.2645 29.6719 15.6143 30.3221 15.6143 31.1213V32.6973H12.7704C11.6178 32.7432 11.6186 34.3892 12.7704 34.4347H31.2119C32.3645 34.3888 32.3637 32.7427 31.2119 32.6973Z" fill="white"/>
<path d="M18.707 26.3177V27.9162H25.2943V26.3177C25.2943 25.9794 25.02 25.7051 24.6817 25.7051H19.3196C18.9813 25.7051 18.707 25.9794 18.707 26.3177Z" fill="white"/>
<path d="M21.9861 19.9028C26.3433 19.9028 29.8883 16.3579 29.8883 12.0007V8.59961H14.084V12.0007C14.084 16.3579 17.6289 19.9028 21.9861 19.9028ZM20.6289 10.5178H22.0519C22.5684 10.5178 22.987 10.9365 22.987 11.453V16.034C22.9376 17.2748 21.1657 17.2738 21.1168 16.034V12.3882H20.6289C19.3881 12.3387 19.3891 10.5668 20.6289 10.5178Z" fill="white"/>
<path d="M21.9855 21.7736C21.3254 21.7736 20.6804 21.7074 20.0566 21.582V24.0979H23.9077V21.5833C23.286 21.7078 22.6433 21.7736 21.9855 21.7736Z" fill="white"/>
<path d="M12.3772 13.7814C10.7005 13.4291 9.04417 11.9389 9.04417 10.159V8.82146H12.2141V6.95117H8.10897C7.59249 6.95117 7.17383 7.36983 7.17383 7.88631V10.159C7.17383 13.1691 9.96657 15.629 12.9532 15.7275C12.6967 15.1081 12.5021 14.4569 12.3772 13.7814Z" fill="white"/>
<rect x="4.7832" y="36.3477" width="34.4348" height="4.78261" rx="1" fill="white"/>
</svg>
