<svg width="14" height="16" viewBox="0 0 14 16" fill="none" xmlns="http://www.w3.org/2000/svg">
<path d="M1.99967 15.5001C1.54134 15.5001 1.14912 15.337 0.823008 15.0109C0.496341 14.6842 0.333008 14.2917 0.333008 13.8334V6.33341C0.333008 6.06953 0.392174 5.81953 0.510508 5.58342C0.628285 5.3473 0.791341 5.15286 0.999675 5.00008L5.99967 1.25008C6.15245 1.13897 6.31217 1.05564 6.47884 1.00008C6.64551 0.944526 6.81912 0.916748 6.99967 0.916748C7.18023 0.916748 7.35384 0.944526 7.52051 1.00008C7.68717 1.05564 7.8469 1.13897 7.99967 1.25008L12.9997 5.00008C13.208 5.15286 13.3713 5.3473 13.4897 5.58342C13.6075 5.81953 13.6663 6.06953 13.6663 6.33341V13.8334C13.6663 14.2917 13.5033 14.6842 13.1772 15.0109C12.8505 15.337 12.458 15.5001 11.9997 15.5001H8.66634V9.66675H5.33301V15.5001H1.99967Z" fill="#1F2123"/>
</svg>
