<svg width="16" height="15" viewBox="0 0 16 15" fill="none" xmlns="http://www.w3.org/2000/svg">
<path d="M13.4991 12.7876C12.7989 13.489 11.9674 14.0453 11.052 14.425C10.1366 14.8046 9.15533 15 8.16434 15C7.17335 15 6.19209 14.8046 5.27669 14.425C4.3613 14.0453 3.52974 13.489 2.8296 12.7876C2.74519 12.7035 2.67821 12.6035 2.63251 12.4935C2.58681 12.3834 2.56328 12.2654 2.56328 12.1462C2.56328 12.0271 2.58681 11.9091 2.63251 11.799C2.67821 11.6889 2.74519 11.589 2.8296 11.5049C3.0014 11.338 3.23148 11.2447 3.47098 11.2447C3.71048 11.2447 3.94055 11.338 4.11235 11.5049C4.91356 12.3052 5.93405 12.85 7.04482 13.0704C8.15559 13.2909 9.30679 13.1771 10.3529 12.7434C11.399 12.3098 12.2931 11.5757 12.9221 10.634C13.5511 9.69234 13.8868 8.58532 13.8868 7.45288C13.8868 6.32044 13.5511 5.21342 12.9221 4.27175C12.2931 3.33007 11.399 2.59601 10.3529 2.16234C9.30679 1.72868 8.15559 1.61488 7.04482 1.83534C5.93405 2.05579 4.91356 2.60059 4.11235 3.40089L3.0937 4.412H4.52736C4.76751 4.412 4.99782 4.5074 5.16763 4.67721C5.33744 4.84702 5.43283 5.07733 5.43283 5.31748C5.43283 5.55762 5.33744 5.78793 5.16763 5.95774C4.99782 6.12755 4.76751 6.22295 4.52736 6.22295H0.905472C0.665326 6.22295 0.435016 6.12755 0.265207 5.95774C0.0953977 5.78793 0 5.55762 0 5.31748V1.69559C-1.77187e-09 1.57668 0.0234208 1.45893 0.068925 1.34908C0.114429 1.23922 0.181126 1.1394 0.265207 1.05532C0.349288 0.97124 0.449106 0.904543 0.558963 0.859039C0.66882 0.813535 0.786564 0.790114 0.905472 0.790114C1.02438 0.790114 1.14212 0.813535 1.25198 0.859039C1.36184 0.904543 1.46166 0.97124 1.54574 1.05532C1.62982 1.1394 1.69652 1.23922 1.74202 1.34908C1.78752 1.45893 1.81094 1.57668 1.81094 1.69559V3.12925L2.8296 2.11814C4.25272 0.743648 6.15875 -0.0169068 8.13719 0.000285243C10.1156 0.0174773 12.0082 0.81104 13.4072 2.21006C14.8062 3.60907 15.5997 5.5016 15.6169 7.48004C15.6341 9.45847 14.8736 11.3645 13.4991 12.7876Z" fill="white"/>
</svg>
