<svg width="16" height="16" viewBox="0 0 16 16" fill="none" xmlns="http://www.w3.org/2000/svg">
<path d="M11.7694 10.8856L14.004 13.1197C14.2482 13.3639 14.2483 13.7599 14.0041 14.0041C13.7599 14.2483 13.3639 14.2482 13.1197 14.004L10.8856 11.7694C9.88984 12.5676 8.65125 13.0018 7.375 13C4.27 13 1.75 10.48 1.75 7.375C1.75 4.27 4.27 1.75 7.375 1.75C10.48 1.75 13 4.27 13 7.375C13.0018 8.65125 12.5676 9.88984 11.7694 10.8856ZM10.5156 10.4219C11.3088 9.60618 11.7518 8.51277 11.75 7.375C11.75 4.9575 9.79187 3 7.375 3C4.9575 3 3 4.9575 3 7.375C3 9.79187 4.9575 11.75 7.375 11.75C8.51277 11.7518 9.60618 11.3088 10.4219 10.5156L10.5156 10.4219Z" fill="white"/>
</svg>
