<svg width="23" height="22" viewBox="0 0 23 22" fill="none" xmlns="http://www.w3.org/2000/svg">
<path fill-rule="evenodd" clip-rule="evenodd" d="M5.77859 12.6869L0.679887 10.6798C0.162042 10.4751 0.157548 9.70406 0.673922 9.49402L21.5992 0.980371C22.0428 0.799412 22.5005 1.20933 22.4039 1.70065L18.6487 20.7514C18.5602 21.2012 18.0602 21.4051 17.7072 21.1346L12.5811 17.2094C12.2698 16.971 11.8454 16.9838 11.5475 17.2398L8.70539 19.6834C8.37546 19.9679 7.87841 19.8094 7.75212 19.3807L5.77859 12.6869ZM17.3988 5.14555L7.43404 11.6184C7.05212 11.8671 6.87229 12.3535 6.99568 12.8089L8.07307 16.8016C8.14957 17.0846 8.53897 17.0556 8.57605 16.7632L8.85619 14.5737C8.90901 14.1614 9.09549 13.7816 9.38454 13.4978L17.6084 5.4354C17.7621 5.28493 17.5779 5.02954 17.3988 5.14555Z" fill="white"/>
<path d="M7.43395 11.6184L17.3987 5.14555C17.5778 5.02954 17.7621 5.28493 17.6083 5.4354L9.38445 13.4978C9.0954 13.7816 8.90891 14.1614 8.8561 14.5737L8.57596 16.7632C8.53888 17.0556 8.14948 17.0846 8.07298 16.8016L6.99559 12.8089C6.8722 12.3535 7.05203 11.8671 7.43395 11.6184Z" fill="#EAEAEA"/>
</svg>
