<svg width="24" height="15" viewBox="0 0 24 15" fill="none" xmlns="http://www.w3.org/2000/svg">
<path d="M20.6819 9.14934C21.4474 9.91973 22.2553 10.6445 22.9419 11.4926C23.2452 11.8695 23.5323 12.2584 23.752 12.6958C24.0632 13.3175 23.7813 14.0017 23.2405 14.0388L19.8785 14.0372C19.0114 14.1114 18.3197 13.7516 17.7381 13.1405C17.2726 12.6518 16.8416 12.1316 16.394 11.6264C16.2105 11.4199 16.0185 11.2256 15.789 11.0721C15.3301 10.765 14.9317 10.859 14.6695 11.3524C14.4023 11.8542 14.3418 12.4099 14.3155 12.9692C14.2795 13.7853 14.0402 13.9998 13.245 14.0371C11.5455 14.1198 9.93266 13.8547 8.43435 12.971C7.11339 12.192 6.08904 11.0921 5.19745 9.84704C3.46152 7.42256 2.13214 4.75846 0.937348 2.01971C0.668409 1.40267 0.86509 1.07144 1.52557 1.05972C2.62233 1.03776 3.71894 1.03932 4.81698 1.05816C5.26274 1.06488 5.55783 1.32842 5.72995 1.7625C6.32333 3.26646 7.0494 4.69734 7.96077 6.02365C8.20347 6.37676 8.45096 6.72987 8.80337 6.9784C9.19325 7.25359 9.49009 7.16238 9.6735 6.7147C9.78989 6.43084 9.84084 6.12509 9.86707 5.82107C9.95397 4.7751 9.96541 3.73094 9.81301 2.68865C9.71945 2.03815 9.364 1.61705 8.7343 1.49395C8.41297 1.43119 8.46081 1.30794 8.6164 1.11888C8.88663 0.792815 9.14078 0.589844 9.64742 0.589844H13.4469C14.0451 0.711533 14.1779 0.988518 14.2598 1.60892L14.2631 5.95932C14.2565 6.1995 14.3794 6.9122 14.7991 7.07117C15.135 7.18434 15.3564 6.90736 15.5579 6.68782C16.4676 5.69258 17.1169 4.51641 17.6969 3.2985C17.9543 2.76297 18.1757 2.20682 18.3902 1.65113C18.5491 1.23877 18.7985 1.03588 19.2491 1.04487L22.9059 1.04823C23.0143 1.04823 23.124 1.04987 23.229 1.06839C23.8452 1.17664 24.0141 1.44987 23.8238 2.07012C23.5239 3.04324 22.9404 3.85419 22.37 4.66889C21.7601 5.53869 21.1079 6.37871 20.5032 7.25367C19.9475 8.05266 19.9917 8.4554 20.6819 9.14934Z" fill="white"/>
</svg>
